<?xml version="1.0" standalone="no"?><!-- Generator: Gravit.io --><svg xmlns="http://www.w3.org/2000/svg" xmlns:xlink="http://www.w3.org/1999/xlink" style="isolation:isolate" width="555" height="230"><path d=" M 85.06666666666668 0.9122738744629544 C 64.80000000000001 4.512273874462977 45.46666666666668 15.045607207796309 30.00000000000002 30.77894054112963 C 9.466666666666683 51.712273874462966 1.7763568394002505e-14 74.51227387446298 1.7763568394002505e-14 103.57894054112963 C 1.7763568394002505e-14 133.0456072077963 9.600000000000016 155.71227387446297 30.666666666666686 176.91227387446295 C 46.666666666666686 192.77894054112963 62.000000000000014 201.31227387446296 83.06666666666668 205.8456072077963 C 96.53333333333335 208.6456072077963 121.33333333333334 207.57894054112964 134.00000000000003 203.57894054112964 C 168.13333333333335 192.77894054112963 195.46666666666667 164.51227387446295 204.8 130.2456072077963 C 208.13333333333335 118.11227387446297 208.13333333333335 89.04560720779631 204.8 76.91227387446295 C 195.46666666666667 42.6456072077963 166.53333333333336 13.045607207796309 133.33333333333334 3.57894054112964 C 122.13333333333335 0.37894054112962294 95.86666666666669 -1.0877261255370456 85.06666666666668 0.9122738744629544 Z  M 108.4 27.178940541129634 C 111.86666666666667 39.57894054112964 114.66666666666669 50.11227387446297 114.66666666666669 50.6456072077963 C 114.66666666666669 52.51227387446298 95.06666666666668 60.912273874462954 90.80000000000001 60.912273874462954 C 88.53333333333335 60.912273874462954 85.20000000000002 59.445607207796286 82.80000000000001 57.445607207796286 L 78.66666666666669 53.978940541129646 L 78.80000000000001 38.51227387446298 C 78.93333333333335 29.84560720779629 79.33333333333336 19.31227387446296 79.86666666666669 14.912273874462954 C 80.66666666666669 7.045607207796309 80.80000000000001 6.912273874462954 85.33333333333336 6.112273874462971 C 87.86666666666669 5.57894054112964 92.80000000000001 5.178940541129634 96.13333333333335 5.045607207796309 L 102.13333333333335 4.912273874462954 L 108.4 27.178940541129634 Z  M 126.00000000000003 6.912273874462954 C 140.4 9.978940541129646 168.8 24.77894054112963 165.73333333333335 27.712273874462966 C 163.0666666666667 30.11227387446297 120.66666666666669 48.77894054112963 120.00000000000003 47.978940541129646 C 119.06666666666669 47.04560720779631 108.00000000000003 7.8456072077962915 108.00000000000003 5.8456072077962915 C 108.00000000000003 4.378940541129623 116.00000000000003 4.778940541129629 126.00000000000003 6.912273874462954 Z  M 72.26666666666668 38.6456072077963 C 71.20000000000002 53.31227387446296 70.40000000000002 57.84560720779629 67.60000000000002 63.978940541129646 C 64.00000000000001 71.84560720779629 53.46666666666668 83.57894054112964 50.000000000000014 83.57894054112964 C 48.93333333333335 83.57894054112964 48.000000000000014 83.44560720779629 48.000000000000014 83.17894054112963 C 48.000000000000014 82.91227387446295 44.40000000000002 72.91227387446295 40.000000000000014 60.912273874462954 C 35.600000000000016 48.912273874462954 32.00000000000002 37.978940541129646 32.00000000000002 36.77894054112963 C 32.00000000000002 35.445607207796286 36.00000000000002 31.178940541129634 41.06666666666669 27.178940541129634 C 52.40000000000002 18.245607207796297 56.000000000000014 15.978940541129646 65.20000000000002 12.112273874462971 L 72.66666666666669 9.178940541129634 L 73.06666666666669 14.912273874462954 C 73.33333333333336 18.245607207796297 72.93333333333335 28.912273874462954 72.26666666666668 38.6456072077963 Z  M 176.93333333333334 37.04560720779631 C 179.73333333333335 39.978940541129646 183.73333333333335 45.04560720779631 186.00000000000003 48.2456072077963 C 191.60000000000002 56.11227387446297 199.20000000000002 72.91227387446295 197.86666666666667 74.2456072077963 C 196.26666666666668 75.57894054112964 185.0666666666667 79.04560720779631 176.26666666666668 80.77894054112963 C 159.60000000000002 84.2456072077963 147.4666666666667 81.97894054112965 136.00000000000003 73.57894054112964 C 129.4666666666667 68.77894054112963 120.93333333333334 57.57894054112964 121.73333333333335 55.04560720779631 C 122.13333333333335 53.84560720779629 168.00000000000003 32.11227387446297 170.93333333333334 31.712273874462966 C 171.4666666666667 31.57894054112964 174.13333333333335 33.978940541129646 176.93333333333334 37.04560720779631 Z  M 36.666666666666686 61.178940541129634 C 40.80000000000001 72.6456072077963 43.86666666666669 82.77894054112963 43.33333333333336 83.57894054112964 C 42.80000000000001 84.37894054112962 35.600000000000016 84.91227387446295 24.533333333333353 84.91227387446295 C 9.33333333333335 84.91227387446295 6.666666666666686 84.6456072077963 6.666666666666686 82.91227387446295 C 6.666666666666686 79.17894054112963 12.133333333333354 64.37894054112962 16.266666666666687 56.912273874462954 C 20.266666666666687 49.712273874462966 28.00000000000002 39.04560720779631 28.666666666666686 39.84560720779629 C 28.80000000000002 40.11227387446297 32.40000000000002 49.712273874462966 36.666666666666686 61.178940541129634 Z  M 115.60000000000002 61.84560720779629 C 114.53333333333336 68.37894054112962 108.53333333333336 76.77894054112963 102.66666666666669 79.71227387446297 C 100.13333333333335 81.04560720779631 93.60000000000002 82.51227387446298 88.13333333333335 83.04560720779631 C 78.80000000000001 83.97894054112965 78.40000000000002 83.84560720779629 79.73333333333335 81.44560720779629 C 82.80000000000001 75.71227387446297 93.06666666666668 67.31227387446296 103.20000000000002 62.37894054112962 C 109.20000000000002 59.445607207796286 114.53333333333336 56.912273874462954 115.20000000000002 56.912273874462954 C 115.86666666666667 56.912273874462954 116.00000000000003 59.178940541129634 115.60000000000002 61.84560720779629 Z  M 160.66666666666669 89.44560720779629 C 163.0666666666667 90.51227387446296 165.73333333333335 92.51227387446296 166.4 93.8456072077963 C 169.4666666666667 99.8456072077963 162.4 109.57894054112963 150.93333333333334 115.0456072077963 C 145.60000000000002 117.57894054112963 139.4666666666667 116.51227387446296 136.66666666666669 112.51227387446296 C 134.66666666666669 109.57894054112963 133.86666666666667 97.71227387446297 135.4666666666667 93.57894054112963 C 137.60000000000002 88.2456072077963 152.00000000000003 85.84560720779629 160.66666666666669 89.44560720779629 Z  M 61.86666666666669 90.37894054112964 C 67.73333333333335 93.17894054112963 68.53333333333335 97.8456072077963 65.20000000000002 110.11227387446297 C 63.60000000000002 116.11227387446297 62.000000000000014 120.77894054112963 61.73333333333335 120.51227387446296 C 61.60000000000002 120.2456072077963 58.93333333333335 113.31227387446296 56.000000000000014 105.17894054112963 C 51.33333333333336 91.97894054112963 51.06666666666669 90.37894054112964 53.06666666666669 89.84560720779629 C 57.06666666666669 88.77894054112963 58.40000000000002 88.91227387446295 61.86666666666669 90.37894054112964 Z  M 115.73333333333335 91.4456072077963 C 125.86666666666667 96.6456072077963 129.60000000000002 104.51227387446296 127.73333333333335 116.6456072077963 C 126.53333333333336 124.6456072077963 120.53333333333336 135.97894054112965 114.66666666666669 141.4456072077963 C 110.66666666666669 145.31227387446296 80.40000000000002 166.2456072077963 79.06666666666668 166.2456072077963 C 78.00000000000001 166.2456072077963 65.33333333333336 132.11227387446297 65.33333333333336 129.31227387446296 C 65.33333333333336 127.84560720779629 74.00000000000001 94.2456072077963 75.33333333333336 90.51227387446296 C 75.73333333333335 89.31227387446296 80.66666666666669 88.91227387446295 93.33333333333336 88.91227387446295 C 107.86666666666667 88.91227387446295 111.60000000000002 89.31227387446296 115.73333333333335 91.4456072077963 Z  M 22.00000000000002 93.57894054112963 C 4.2666666666666835 98.91227387446297 5.3333333333333535 98.91227387446297 5.3333333333333535 94.2456072077963 L 5.3333333333333535 90.2456072077963 L 19.066666666666684 90.37894054112964 L 32.666666666666686 90.37894054112964 L 22.00000000000002 93.57894054112963 Z  M 54.000000000000014 109.0456072077963 L 60.40000000000002 126.6456072077963 L 52.533333333333346 154.37894054112962 C 48.26666666666668 169.71227387446297 44.26666666666668 182.2456072077963 43.86666666666669 182.2456072077963 C 41.86666666666669 182.2456072077963 31.066666666666684 171.57894054112964 25.066666666666684 163.71227387446297 C 12.666666666666686 147.17894054112963 5.466666666666686 127.71227387446297 5.3333333333333535 110.2456072077963 L 5.3333333333333535 102.91227387446297 L 25.066666666666684 97.31227387446296 C 35.86666666666668 94.2456072077963 45.33333333333336 91.71227387446297 46.133333333333354 91.71227387446297 C 46.93333333333335 91.57894054112963 50.533333333333346 99.4456072077963 54.000000000000014 109.0456072077963 Z  M 202.66666666666669 103.8456072077963 C 202.66666666666669 110.6456072077963 201.73333333333335 120.37894054112964 200.66666666666669 125.57894054112963 C 196.93333333333334 143.5789405411296 182.93333333333334 166.51227387446295 168.00000000000003 179.31227387446296 C 161.73333333333335 184.6456072077963 149.0666666666667 192.91227387446295 147.20000000000002 192.91227387446295 C 145.4666666666667 192.91227387446295 142.66666666666669 171.8456072077963 142.66666666666669 158.51227387446295 C 142.66666666666669 140.51227387446295 151.20000000000002 122.37894054112964 164.66666666666669 111.8456072077963 C 175.86666666666667 103.17894054112963 196.00000000000003 91.97894054112963 201.0666666666667 91.71227387446297 C 202.26666666666668 91.57894054112963 202.66666666666669 94.91227387446297 202.66666666666669 103.8456072077963 Z  M 69.73333333333335 152.6456072077963 L 75.73333333333335 169.0456072077963 L 63.20000000000002 177.57894054112964 C 56.26666666666668 182.2456072077963 50.666666666666686 185.71227387446297 50.666666666666686 185.17894054112963 C 50.533333333333346 183.8456072077963 63.20000000000002 135.71227387446297 63.46666666666668 135.97894054112965 C 63.73333333333335 136.11227387446297 66.40000000000002 143.5789405411296 69.73333333333335 152.6456072077963 Z  M 126.66666666666669 154.51227387446295 C 135.0666666666667 158.91227387446295 137.20000000000002 162.6456072077963 139.4666666666667 176.91227387446295 C 142.26666666666668 194.6456072077963 142.13333333333335 195.57894054112964 133.73333333333335 198.51227387446295 C 124.93333333333334 201.4456072077963 106.00000000000003 203.71227387446297 97.46666666666668 202.6456072077963 L 90.93333333333335 201.8456072077963 L 86.00000000000001 188.11227387446297 C 83.33333333333336 180.51227387446295 81.46666666666668 173.8456072077963 81.86666666666669 173.17894054112963 C 83.33333333333336 170.77894054112963 107.20000000000002 155.0456072077963 111.86666666666667 153.4456072077963 C 118.53333333333336 151.0456072077963 120.00000000000003 151.17894054112963 126.66666666666669 154.51227387446295 Z  M 82.40000000000002 187.4456072077963 C 84.80000000000001 193.8456072077963 86.66666666666669 199.71227387446297 86.66666666666669 200.2456072077963 C 86.66666666666669 202.11227387446297 75.73333333333335 199.57894054112964 65.73333333333335 195.31227387446296 C 57.20000000000002 191.8456072077963 56.000000000000014 190.91227387446295 57.60000000000002 189.31227387446296 C 59.73333333333335 187.17894054112963 76.26666666666668 175.71227387446297 77.33333333333336 175.71227387446297 C 77.73333333333335 175.57894054112964 80.00000000000001 180.91227387446295 82.40000000000002 187.4456072077963 Z " fill-rule="evenodd" fill="rgb(255,255,255)" stroke-width="0.13333333333333333" stroke="rgba(0,0,0,0)" stroke-linejoin="miter" stroke-linecap="butt"/><path d=" M 264.6 91.95 Q 265 91.95 265.325 92.275 L 267.225 94.35 Q 265.025 96.9 261.8875 98.325 Q 258.75 99.75 254.325 99.75 Q 250.45 99.75 247.3 98.4125 Q 244.15 97.075 241.925 94.6625 Q 239.7 92.25 238.475 88.875 Q 237.25 85.5 237.25 81.45 Q 237.25 77.4 238.5625 74.025 Q 239.875 70.65 242.25 68.225 Q 244.625 65.8 247.9375 64.4625 Q 251.25 63.125 255.25 63.125 Q 259.2 63.125 262.0625 64.35 Q 264.925 65.575 267.15 67.675 L 265.575 69.9 Q 265.4 70.15 265.175 70.3125 Q 264.95 70.475 264.525 70.475 Q 264.2 70.475 263.8375 70.2375 Q 263.475 70 262.975 69.65 Q 262.475 69.3 261.8 68.9 Q 261.125 68.5 260.2 68.15 Q 259.275 67.8 258.05 67.5625 Q 256.825 67.325 255.225 67.325 Q 252.35 67.325 249.9625 68.3125 Q 247.575 69.3 245.85 71.125 Q 244.125 72.95 243.1625 75.575 Q 242.2 78.2 242.2 81.45 Q 242.2 84.8 243.1625 87.425 Q 244.125 90.05 245.7875 91.8625 Q 247.45 93.675 249.725 94.625 Q 252 95.575 254.625 95.575 Q 256.225 95.575 257.5 95.3875 Q 258.775 95.2 259.8625 94.80000000000001 Q 260.95 94.4 261.8875 93.7875 Q 262.825 93.175 263.775 92.325 Q 264.2 91.95 264.6 91.95 Z  M 283.15 73.625 Q 285.925 73.625 288.1625 74.55 Q 290.4 75.475 291.9625 77.175 Q 293.525 78.875 294.3625 81.2875 Q 295.2 83.7 295.2 86.675 Q 295.2 89.675 294.3625 92.075 Q 293.525 94.475 291.9625 96.17500000000001 Q 290.4 97.875 288.1625 98.7875 Q 285.925 99.7 283.15 99.7 Q 280.375 99.7 278.1375 98.7875 Q 275.9 97.875 274.325 96.17500000000001 Q 272.75 94.475 271.9 92.075 Q 271.05 89.675 271.05 86.675 Q 271.05 83.7 271.9 81.2875 Q 272.75 78.875 274.325 77.175 Q 275.9 75.475 278.1375 74.55 Q 280.375 73.625 283.15 73.625 Z  M 283.15 96.225 Q 286.9 96.225 288.75 93.7125 Q 290.6 91.2 290.6 86.7 Q 290.6 82.175 288.75 79.65 Q 286.9 77.125 283.15 77.125 Q 281.25 77.125 279.85 77.775 Q 278.45 78.425 277.5125 79.65 Q 276.575 80.875 276.1125 82.6625 Q 275.65 84.45 275.65 86.7 Q 275.65 88.95 276.1125 90.725 Q 276.575 92.5 277.5125 93.7125 Q 278.45 94.92500000000001 279.85 95.575 Q 281.25 96.225 283.15 96.225 Z  M 300.7 99.35 L 300.7 74.025 L 303.35 74.025 Q 304.3 74.025 304.55 74.95 L 304.9 77.7 Q 306.55 75.875 308.5875 74.75 Q 310.625 73.625 313.3 73.625 Q 315.375 73.625 316.9625 74.3125 Q 318.55 75 319.6125 76.2625 Q 320.675 77.525 321.225 79.3 Q 321.775 81.075 321.775 83.225 L 321.775 99.35 L 317.325 99.35 L 317.325 83.225 Q 317.325 80.35 316.0125 78.7625 Q 314.7 77.175 312 77.175 Q 310.025 77.175 308.3125 78.125 Q 306.6 79.075 305.15 80.7 L 305.15 99.35 L 300.7 99.35 Z  M 328.5 99.35 L 328.5 74.025 L 331.15 74.025 Q 332.1 74.025 332.35 74.95 L 332.7 77.7 Q 334.35 75.875 336.3875 74.75 Q 338.425 73.625 341.1 73.625 Q 343.175 73.625 344.7625 74.3125 Q 346.35 75 347.4125 76.2625 Q 348.475 77.525 349.025 79.3 Q 349.575 81.075 349.575 83.225 L 349.575 99.35 L 345.125 99.35 L 345.125 83.225 Q 345.125 80.35 343.8125 78.7625 Q 342.5 77.175 339.8 77.175 Q 337.825 77.175 336.1125 78.125 Q 334.4 79.075 332.95 80.7 L 332.95 99.35 L 328.5 99.35 Z  M 366.325 73.625 Q 368.6 73.625 370.525 74.3875 Q 372.45 75.15 373.85 76.5875 Q 375.25 78.025 376.0375 80.1375 Q 376.825 82.25 376.825 84.95 Q 376.825 86 376.6 86.35 Q 376.375 86.7 375.75 86.7 L 358.9 86.7 Q 358.95 89.1 359.55 90.875 Q 360.15 92.65 361.2 93.8375 Q 362.25 95.025 363.7 95.61250000000001 Q 365.15 96.2 366.95 96.2 Q 368.625 96.2 369.8375 95.8125 Q 371.04999999999995 95.42500000000001 371.92499999999995 94.975 Q 372.79999999999995 94.525 373.3875 94.1375 Q 373.975 93.75 374.4 93.75 Q 374.95 93.75 375.25 94.175 L 376.5 95.80000000000001 Q 375.67499999999995 96.80000000000001 374.525 97.5375 Q 373.375 98.275 372.0625 98.75 Q 370.75 99.225 369.35 99.4625 Q 367.95 99.7 366.575 99.7 Q 363.95 99.7 361.7375 98.8125 Q 359.525 97.92500000000001 357.9125 96.2125 Q 356.3 94.5 355.4 91.975 Q 354.5 89.45 354.5 86.175 Q 354.5 83.525 355.3125 81.225 Q 356.125 78.925 357.65 77.2375 Q 359.175 75.55 361.375 74.5875 Q 363.575 73.625 366.325 73.625 Z  M 366.42499999999995 76.9 Q 363.2 76.9 361.35 78.7625 Q 359.5 80.625 359.05 83.925 L 372.825 83.925 Q 372.825 82.375 372.4 81.0875 Q 371.975 79.8 371.15 78.8625 Q 370.325 77.925 369.1375 77.4125 Q 367.95 76.9 366.42499999999995 76.9 Z  M 399.775 78.525 Q 399.575 78.8 399.375 78.95 Q 399.175 79.1 398.8 79.1 Q 398.425 79.1 397.98749999999995 78.7875 Q 397.54999999999995 78.475 396.875 78.1 Q 396.2 77.725 395.23749999999995 77.4125 Q 394.275 77.1 392.875 77.1 Q 391.025 77.1 389.6 77.7625 Q 388.17499999999995 78.425 387.2125 79.675 Q 386.25 80.925 385.7625 82.7 Q 385.275 84.475 385.275 86.675 Q 385.275 88.975 385.79999999999995 90.7625 Q 386.325 92.55 387.275 93.7625 Q 388.225 94.975 389.5875 95.61250000000001 Q 390.95 96.25 392.65 96.25 Q 394.275 96.25 395.325 95.86250000000001 Q 396.375 95.475 397.075 95 Q 397.775 94.525 398.225 94.1375 Q 398.675 93.75 399.125 93.75 Q 399.7 93.75 399.975 94.175 L 401.225 95.80000000000001 Q 399.575 97.825 397.1 98.7625 Q 394.625 99.7 391.875 99.7 Q 389.5 99.7 387.4625 98.825 Q 385.42499999999995 97.95 383.92499999999995 96.2875 Q 382.42499999999995 94.625 381.5625 92.2 Q 380.7 89.775 380.7 86.675 Q 380.7 83.85 381.48749999999995 81.45 Q 382.275 79.05 383.7875 77.3125 Q 385.29999999999995 75.575 387.525 74.6 Q 389.75 73.625 392.625 73.625 Q 395.275 73.625 397.325 74.4875 Q 399.375 75.35 400.95 76.925 L 399.775 78.525 Z  M 413.525 99.75 Q 410.525 99.75 408.9125 98.075 Q 407.29999999999995 96.4 407.29999999999995 93.25 L 407.29999999999995 77.75 L 404.25 77.75 Q 403.85 77.75 403.575 77.5125 Q 403.29999999999995 77.275 403.29999999999995 76.775 L 403.29999999999995 75 L 407.45 74.475 L 408.475 66.65 Q 408.525 66.275 408.79999999999995 66.0375 Q 409.075 65.8 409.5 65.8 L 411.75 65.8 L 411.75 74.525 L 419 74.525 L 419 77.75 L 411.75 77.75 L 411.75 92.95 Q 411.75 94.55 412.525 95.325 Q 413.29999999999995 96.1 414.525 96.1 Q 415.225 96.1 415.73749999999995 95.9125 Q 416.25 95.725 416.625 95.5 Q 417 95.275 417.2625 95.0875 Q 417.525 94.9 417.725 94.9 Q 418.075 94.9 418.35 95.325 L 419.65 97.45 Q 418.5 98.525 416.875 99.1375 Q 415.25 99.75 413.525 99.75 Z  M 434.525 73.625 Q 436.79999999999995 73.625 438.725 74.3875 Q 440.65 75.15 442.05 76.5875 Q 443.45 78.025 444.2375 80.1375 Q 445.025 82.25 445.025 84.95 Q 445.025 86 444.8 86.35 Q 444.575 86.7 443.95 86.7 L 427.1 86.7 Q 427.15 89.1 427.75 90.875 Q 428.35 92.65 429.4 93.8375 Q 430.45 95.025 431.9 95.61250000000001 Q 433.35 96.2 435.15 96.2 Q 436.825 96.2 438.0375 95.8125 Q 439.25 95.42500000000001 440.125 94.975 Q 441 94.525 441.5875 94.1375 Q 442.175 93.75 442.6 93.75 Q 443.15 93.75 443.45 94.175 L 444.7 95.80000000000001 Q 443.875 96.80000000000001 442.725 97.5375 Q 441.575 98.275 440.2625 98.75 Q 438.95 99.225 437.54999999999995 99.4625 Q 436.15 99.7 434.775 99.7 Q 432.15 99.7 429.9375 98.8125 Q 427.725 97.92500000000001 426.11249999999995 96.2125 Q 424.5 94.5 423.6 91.975 Q 422.7 89.45 422.7 86.175 Q 422.7 83.525 423.5125 81.225 Q 424.325 78.925 425.85 77.2375 Q 427.375 75.55 429.575 74.5875 Q 431.775 73.625 434.525 73.625 Z  M 434.625 76.9 Q 431.4 76.9 429.54999999999995 78.7625 Q 427.7 80.625 427.25 83.925 L 441.025 83.925 Q 441.025 82.375 440.6 81.0875 Q 440.175 79.8 439.35 78.8625 Q 438.525 77.925 437.3375 77.4125 Q 436.15 76.9 434.625 76.9 Z  M 468.525 99.35 Q 467.57500000000005 99.35 467.32500000000005 98.42500000000001 L 466.925 95.35 Q 465.3 97.325 463.2125 98.5125 Q 461.125 99.7 458.425 99.7 Q 456.25 99.7 454.475 98.86250000000001 Q 452.70000000000005 98.025 451.45000000000005 96.4 Q 450.20000000000005 94.775 449.525 92.35 Q 448.85 89.925 448.85 86.775 Q 448.85 83.975 449.6 81.5625 Q 450.35 79.15 451.76250000000005 77.375 Q 453.175 75.6 455.20000000000005 74.5875 Q 457.225 73.575 459.8 73.575 Q 462.125 73.575 463.775 74.3625 Q 465.425 75.15 466.725 76.575 L 466.725 62.525 L 471.175 62.525 L 471.175 99.35 L 468.525 99.35 Z  M 459.9 96.1 Q 462.07500000000005 96.1 463.7125 95.1 Q 465.35 94.1 466.725 92.275 L 466.725 80.025 Q 465.5 78.375 464.0375 77.7125 Q 462.57500000000005 77.05 460.8 77.05 Q 457.25 77.05 455.35 79.575 Q 453.45000000000005 82.1 453.45000000000005 86.775 Q 453.45000000000005 89.25 453.875 91.0125 Q 454.3 92.775 455.125 93.9125 Q 455.95000000000005 95.05000000000001 457.15 95.575 Q 458.35 96.1 459.9 96.1 Z  M 253.275 155.5 Q 255.5 155.5 257.25 154.75 Q 259 154 260.2125 152.64999999999998 Q 261.425 151.3 262.0625 149.425 Q 262.7 147.55 262.7 145.3 L 262.7 123.52499999999999 L 267.525 123.52499999999999 L 267.525 145.3 Q 267.525 148.39999999999998 266.5375 151.05 Q 265.55 153.7 263.7125 155.6375 Q 261.875 157.575 259.225 158.675 Q 256.575 159.77499999999998 253.275 159.77499999999998 Q 249.975 159.77499999999998 247.325 158.675 Q 244.675 157.575 242.825 155.6375 Q 240.975 153.7 239.9875 151.05 Q 239 148.39999999999998 239 145.3 L 239 123.52499999999999 L 243.825 123.52499999999999 L 243.825 145.27499999999998 Q 243.825 147.52499999999998 244.4625 149.39999999999998 Q 245.1 151.27499999999998 246.3125 152.625 Q 247.525 153.975 249.2875 154.7375 Q 251.05 155.5 253.275 155.5 Z  M 275.15 159.35 L 275.15 134.02499999999998 L 277.7 134.02499999999998 Q 278.425 134.02499999999998 278.7 134.3 Q 278.975 134.575 279.075 135.25 L 279.375 139.2 Q 280.675 136.55 282.5875 135.0625 Q 284.5 133.575 287.075 133.575 Q 288.125 133.575 288.975 133.8125 Q 289.825 134.05 290.55 134.475 L 289.975 137.8 Q 289.8 138.425 289.2 138.425 Q 288.85 138.425 288.125 138.1875 Q 287.4 137.95 286.1 137.95 Q 283.775 137.95 282.2125 139.3 Q 280.65 140.64999999999998 279.6 143.225 L 279.6 159.35 L 275.15 159.35 Z  M 295.45 159.35 L 295.45 122.52499999999999 L 299.925 122.52499999999999 L 299.925 137.675 Q 301.5 135.85 303.5375 134.7375 Q 305.575 133.625 308.2 133.625 Q 310.4 133.625 312.175 134.45 Q 313.95 135.27499999999998 315.2 136.9125 Q 316.45 138.55 317.125 140.96249999999998 Q 317.8 143.375 317.8 146.52499999999998 Q 317.8 149.325 317.05 151.7375 Q 316.3 154.14999999999998 314.8875 155.9125 Q 313.475 157.675 311.4375 158.6875 Q 309.4 159.7 306.85 159.7 Q 304.4 159.7 302.6875 158.75 Q 300.975 157.8 299.7 156.1 L 299.475 158.39999999999998 Q 299.275 159.35 298.325 159.35 L 295.45 159.35 Z  M 306.75 137.175 Q 304.575 137.175 302.9375 138.175 Q 301.3 139.175 299.925 141 L 299.925 153.25 Q 301.125 154.89999999999998 302.5875 155.575 Q 304.05 156.25 305.85 156.25 Q 309.4 156.25 311.3 153.725 Q 313.2 151.2 313.2 146.52499999999998 Q 313.2 144.05 312.7625 142.27499999999998 Q 312.325 140.5 311.5 139.3625 Q 310.675 138.225 309.475 137.7 Q 308.275 137.175 306.75 137.175 Z  M 341.85 159.35 L 339.875 159.35 Q 339.225 159.35 338.82500000000005 159.14999999999998 Q 338.425 158.95 338.3 158.3 L 337.8 155.95 Q 336.8 156.85 335.85 157.5625 Q 334.9 158.27499999999998 333.85 158.7625 Q 332.8 159.25 331.6125 159.5 Q 330.425 159.75 328.975 159.75 Q 327.5 159.75 326.2125 159.33749999999998 Q 324.925 158.925 323.975 158.1 Q 323.025 157.27499999999998 322.4625 156.0125 Q 321.9 154.75 321.9 153.02499999999998 Q 321.9 151.52499999999998 322.725 150.1375 Q 323.55 148.75 325.3875 147.675 Q 327.225 146.6 330.20000000000005 145.9125 Q 333.175 145.225 337.475 145.125 L 337.475 143.14999999999998 Q 337.475 140.2 336.2125 138.6875 Q 334.95000000000005 137.175 332.475 137.175 Q 330.85 137.175 329.7375 137.58749999999998 Q 328.625 138 327.8125 138.5125 Q 327 139.02499999999998 326.4125 139.4375 Q 325.825 139.85 325.25 139.85 Q 324.8 139.85 324.4625 139.6125 Q 324.125 139.375 323.925 139.02499999999998 L 323.125 137.6 Q 325.225 135.575 327.65 134.575 Q 330.07500000000005 133.575 333.025 133.575 Q 335.15 133.575 336.8 134.27499999999998 Q 338.45000000000005 134.975 339.57500000000005 136.225 Q 340.70000000000005 137.475 341.275 139.25 Q 341.85 141.02499999999998 341.85 143.14999999999998 L 341.85 159.35 Z  M 330.3 156.625 Q 331.475 156.625 332.45000000000005 156.3875 Q 333.425 156.14999999999998 334.2875 155.71249999999998 Q 335.15 155.27499999999998 335.9375 154.64999999999998 Q 336.725 154.02499999999998 337.475 153.225 L 337.475 147.95 Q 334.4 148.05 332.25 148.4375 Q 330.1 148.825 328.75 149.45 Q 327.4 150.075 326.7875 150.925 Q 326.175 151.77499999999998 326.175 152.825 Q 326.175 153.825 326.5 154.55 Q 326.825 155.27499999999998 327.375 155.7375 Q 327.925 156.2 328.675 156.4125 Q 329.425 156.625 330.3 156.625 Z  M 348.6 159.35 L 348.6 134.02499999999998 L 351.25 134.02499999999998 Q 352.20000000000005 134.02499999999998 352.45000000000005 134.95 L 352.8 137.7 Q 354.45000000000005 135.875 356.4875 134.75 Q 358.52500000000003 133.625 361.20000000000005 133.625 Q 363.275 133.625 364.8625 134.3125 Q 366.45000000000005 135 367.51250000000005 136.2625 Q 368.57500000000005 137.52499999999998 369.125 139.3 Q 369.675 141.075 369.675 143.225 L 369.675 159.35 L 365.225 159.35 L 365.225 143.225 Q 365.225 140.35 363.9125 138.7625 Q 362.6 137.175 359.90000000000003 137.175 Q 357.925 137.175 356.21250000000003 138.125 Q 354.5 139.075 353.05 140.7 L 353.05 159.35 L 348.6 159.35 Z  M 411.15000000000003 123.52499999999999 L 411.15000000000003 127.6 L 399.57500000000005 127.6 L 399.57500000000005 159.35 L 394.725 159.35 L 394.725 127.6 L 383.1 127.6 L 383.1 123.52499999999999 L 411.15000000000003 123.52499999999999 Z  M 415.55000000000007 159.35 L 415.55000000000007 134.02499999999998 L 418.1 134.02499999999998 Q 418.82500000000005 134.02499999999998 419.1 134.3 Q 419.375 134.575 419.475 135.25 L 419.77500000000003 139.2 Q 421.07500000000005 136.55 422.98750000000007 135.0625 Q 424.90000000000003 133.575 427.475 133.575 Q 428.52500000000003 133.575 429.375 133.8125 Q 430.225 134.05 430.95000000000005 134.475 L 430.375 137.8 Q 430.20000000000005 138.425 429.6 138.425 Q 429.25 138.425 428.52500000000003 138.1875 Q 427.80000000000007 137.95 426.5 137.95 Q 424.17500000000007 137.95 422.61250000000007 139.3 Q 421.05000000000007 140.64999999999998 420 143.225 L 420 159.35 L 415.55000000000007 159.35 Z  M 445.95000000000005 133.625 Q 448.725 133.625 450.96250000000003 134.55 Q 453.20000000000005 135.475 454.76250000000005 137.175 Q 456.32500000000005 138.875 457.1625 141.2875 Q 458.00000000000006 143.7 458.00000000000006 146.675 Q 458.00000000000006 149.675 457.1625 152.075 Q 456.32500000000005 154.475 454.76250000000005 156.175 Q 453.20000000000005 157.875 450.96250000000003 158.7875 Q 448.725 159.7 445.95000000000005 159.7 Q 443.17500000000007 159.7 440.9375 158.7875 Q 438.70000000000005 157.875 437.125 156.175 Q 435.55000000000007 154.475 434.70000000000005 152.075 Q 433.85 149.675 433.85 146.675 Q 433.85 143.7 434.70000000000005 141.2875 Q 435.55000000000007 138.875 437.125 137.175 Q 438.70000000000005 135.475 440.9375 134.55 Q 443.17500000000007 133.625 445.95000000000005 133.625 Z  M 445.95000000000005 156.225 Q 449.70000000000005 156.225 451.55000000000007 153.71249999999998 Q 453.40000000000003 151.2 453.40000000000003 146.7 Q 453.40000000000003 142.175 451.55000000000007 139.64999999999998 Q 449.70000000000005 137.125 445.95000000000005 137.125 Q 444.05000000000007 137.125 442.65000000000003 137.77499999999998 Q 441.25 138.425 440.3125 139.64999999999998 Q 439.375 140.875 438.9125 142.6625 Q 438.45000000000005 144.45 438.45000000000005 146.7 Q 438.45000000000005 148.95 438.9125 150.725 Q 439.375 152.5 440.3125 153.71249999999998 Q 441.25 154.925 442.65000000000003 155.575 Q 444.05000000000007 156.225 445.95000000000005 156.225 Z  M 463.50000000000006 167.925 L 463.50000000000006 134.02499999999998 L 466.1500000000001 134.02499999999998 Q 467.1 134.02499999999998 467.35 134.95 L 467.725 137.95 Q 469.35 135.975 471.43750000000006 134.77499999999998 Q 473.5250000000001 133.575 476.25000000000006 133.575 Q 478.42500000000007 133.575 480.20000000000005 134.4125 Q 481.975 135.25 483.225 136.8875 Q 484.475 138.52499999999998 485.1500000000001 140.95 Q 485.82500000000005 143.375 485.82500000000005 146.52499999999998 Q 485.82500000000005 149.325 485.07500000000005 151.7375 Q 484.32500000000005 154.14999999999998 482.92500000000007 155.9125 Q 481.5250000000001 157.675 479.48750000000007 158.6875 Q 477.45000000000005 159.7 474.9000000000001 159.7 Q 472.55000000000007 159.7 470.88750000000005 158.925 Q 469.225 158.14999999999998 467.95000000000005 156.725 L 467.95000000000005 167.925 L 463.50000000000006 167.925 Z  M 474.7750000000001 137.175 Q 472.6 137.175 470.9625000000001 138.175 Q 469.32500000000005 139.175 467.95000000000005 141 L 467.95000000000005 153.25 Q 469.17500000000007 154.89999999999998 470.63750000000005 155.575 Q 472.1 156.25 473.9000000000001 156.25 Q 477.42500000000007 156.25 479.32500000000005 153.725 Q 481.225 151.2 481.225 146.52499999999998 Q 481.225 144.05 480.7875 142.27499999999998 Q 480.35 140.5 479.5250000000001 139.3625 Q 478.70000000000005 138.225 477.50000000000006 137.7 Q 476.30000000000007 137.175 474.7750000000001 137.175 Z  M 496.05000000000007 134.02499999999998 L 496.05000000000007 159.35 L 491.6 159.35 L 491.6 134.02499999999998 L 496.05000000000007 134.02499999999998 Z  M 497.05000000000007 126.07499999999999 Q 497.05000000000007 126.725 496.7875 127.2875 Q 496.52500000000003 127.85 496.08750000000003 128.2875 Q 495.65000000000003 128.725 495.07500000000005 128.975 Q 494.50000000000006 129.225 493.85 129.225 Q 493.20000000000005 129.225 492.63750000000005 128.975 Q 492.07500000000005 128.725 491.63750000000005 128.2875 Q 491.20000000000005 127.85 490.95000000000005 127.2875 Q 490.70000000000005 126.725 490.70000000000005 126.07499999999999 Q 490.70000000000005 125.42499999999998 490.95000000000005 124.83749999999999 Q 491.20000000000005 124.25 491.63750000000005 123.8125 Q 492.07500000000005 123.375 492.63750000000005 123.125 Q 493.20000000000005 122.875 493.85 122.875 Q 494.50000000000006 122.875 495.07500000000005 123.125 Q 495.65000000000003 123.375 496.08750000000003 123.8125 Q 496.52500000000003 124.25 496.7875 124.83749999999999 Q 497.05000000000007 125.42499999999998 497.05000000000007 126.07499999999999 Z  M 521.1750000000001 138.52499999999998 Q 520.9750000000001 138.8 520.7750000000001 138.95 Q 520.575 139.1 520.2 139.1 Q 519.825 139.1 519.3875 138.7875 Q 518.95 138.475 518.2750000000001 138.1 Q 517.6000000000001 137.725 516.6375 137.4125 Q 515.6750000000001 137.1 514.2750000000001 137.1 Q 512.4250000000001 137.1 511.00000000000006 137.7625 Q 509.57500000000005 138.425 508.61250000000007 139.675 Q 507.65000000000003 140.925 507.1625000000001 142.7 Q 506.67500000000007 144.475 506.67500000000007 146.675 Q 506.67500000000007 148.975 507.20000000000005 150.7625 Q 507.7250000000001 152.55 508.67500000000007 153.7625 Q 509.62500000000006 154.975 510.98750000000007 155.6125 Q 512.3500000000001 156.25 514.0500000000001 156.25 Q 515.6750000000001 156.25 516.7250000000001 155.8625 Q 517.7750000000001 155.475 518.4750000000001 155 Q 519.1750000000001 154.52499999999998 519.625 154.1375 Q 520.075 153.75 520.5250000000001 153.75 Q 521.1000000000001 153.75 521.375 154.175 L 522.625 155.8 Q 520.9750000000001 157.825 518.5 158.7625 Q 516.0250000000001 159.7 513.2750000000001 159.7 Q 510.90000000000003 159.7 508.86250000000007 158.825 Q 506.82500000000005 157.95 505.32500000000005 156.2875 Q 503.82500000000005 154.625 502.96250000000003 152.2 Q 502.1000000000001 149.77499999999998 502.1000000000001 146.675 Q 502.1000000000001 143.85 502.88750000000005 141.45 Q 503.67500000000007 139.05 505.18750000000006 137.3125 Q 506.70000000000005 135.575 508.92500000000007 134.6 Q 511.15000000000003 133.625 514.0250000000001 133.625 Q 516.6750000000001 133.625 518.7250000000001 134.4875 Q 520.7750000000001 135.35 522.3500000000001 136.925 L 521.1750000000001 138.52499999999998 Z  M 541.75 138.2 Q 541.45 138.75 540.825 138.75 Q 540.45 138.75 539.9750000000001 138.475 Q 539.5 138.2 538.8125 137.8625 Q 538.125 137.52499999999998 537.1750000000001 137.2375 Q 536.2250000000001 136.95 534.9250000000001 136.95 Q 533.8000000000001 136.95 532.9000000000001 137.2375 Q 532 137.52499999999998 531.3625000000001 138.02499999999998 Q 530.7250000000001 138.52499999999998 530.3875 139.1875 Q 530.0500000000001 139.85 530.0500000000001 140.625 Q 530.0500000000001 141.6 530.6125000000001 142.25 Q 531.1750000000001 142.89999999999998 532.1000000000001 143.375 Q 533.0250000000001 143.85 534.2 144.21249999999998 Q 535.375 144.575 536.6125000000001 144.9875 Q 537.8500000000001 145.39999999999998 539.0250000000001 145.89999999999998 Q 540.2 146.39999999999998 541.125 147.14999999999998 Q 542.0500000000001 147.89999999999998 542.6125000000001 148.9875 Q 543.1750000000001 150.075 543.1750000000001 151.6 Q 543.1750000000001 153.35 542.5500000000001 154.83749999999998 Q 541.9250000000001 156.325 540.7 157.4125 Q 539.4750000000001 158.5 537.7 159.125 Q 535.9250000000001 159.75 533.6000000000001 159.75 Q 530.95 159.75 528.8000000000001 158.8875 Q 526.6500000000001 158.02499999999998 525.1500000000001 156.675 L 526.2 154.975 Q 526.4000000000001 154.64999999999998 526.6750000000001 154.475 Q 526.95 154.3 527.4000000000001 154.3 Q 527.8500000000001 154.3 528.3500000000001 154.64999999999998 Q 528.8500000000001 155 529.5625 155.425 Q 530.2750000000001 155.85 531.2875000000001 156.2 Q 532.3000000000001 156.55 533.825 156.55 Q 535.125 156.55 536.1000000000001 156.21249999999998 Q 537.075 155.875 537.7250000000001 155.3 Q 538.375 154.725 538.6875 153.975 Q 539 153.225 539 152.375 Q 539 151.325 538.4375 150.6375 Q 537.875 149.95 536.95 149.46249999999998 Q 536.0250000000001 148.975 534.8375000000001 148.6125 Q 533.6500000000001 148.25 532.4125000000001 147.85 Q 531.1750000000001 147.45 529.9875000000001 146.9375 Q 528.8000000000001 146.425 527.875 145.64999999999998 Q 526.95 144.875 526.3875 143.7375 Q 525.825 142.6 525.825 140.975 Q 525.825 139.52499999999998 526.4250000000001 138.1875 Q 527.0250000000001 136.85 528.1750000000001 135.83749999999998 Q 529.325 134.825 531 134.225 Q 532.6750000000001 133.625 534.825 133.625 Q 537.325 133.625 539.3125 134.4125 Q 541.3000000000001 135.2 542.75 136.575 L 541.75 138.2 Z " fill-rule="evenodd" fill="rgb(255,255,255)" stroke-width="1" stroke="rgba(0,0,0,0)" stroke-linejoin="miter" stroke-linecap="square"/></svg>