<?xml version="1.0" standalone="no"?><!-- Generator: Gravit.io --><svg xmlns="http://www.w3.org/2000/svg" xmlns:xlink="http://www.w3.org/1999/xlink" style="isolation:isolate" width="555" height="230"><path d=" M 85.06666666666668 0.9122738744629544 C 64.80000000000001 4.512273874462977 45.46666666666668 15.045607207796309 30.00000000000002 30.77894054112963 C 9.466666666666683 51.712273874462966 1.7763568394002505e-14 74.51227387446298 1.7763568394002505e-14 103.57894054112963 C 1.7763568394002505e-14 133.0456072077963 9.600000000000016 155.71227387446297 30.666666666666686 176.91227387446295 C 46.666666666666686 192.77894054112963 62.000000000000014 201.31227387446296 83.06666666666668 205.8456072077963 C 96.53333333333335 208.6456072077963 121.33333333333334 207.57894054112964 134.00000000000003 203.57894054112964 C 168.13333333333335 192.77894054112963 195.46666666666667 164.51227387446295 204.8 130.2456072077963 C 208.13333333333335 118.11227387446297 208.13333333333335 89.04560720779631 204.8 76.91227387446295 C 195.46666666666667 42.6456072077963 166.53333333333336 13.045607207796309 133.33333333333334 3.57894054112964 C 122.13333333333335 0.37894054112962294 95.86666666666669 -1.0877261255370456 85.06666666666668 0.9122738744629544 Z  M 108.4 27.178940541129634 C 111.86666666666667 39.57894054112964 114.66666666666669 50.11227387446297 114.66666666666669 50.6456072077963 C 114.66666666666669 52.51227387446298 95.06666666666668 60.912273874462954 90.80000000000001 60.912273874462954 C 88.53333333333335 60.912273874462954 85.20000000000002 59.445607207796286 82.80000000000001 57.445607207796286 L 78.66666666666669 53.978940541129646 L 78.80000000000001 38.51227387446298 C 78.93333333333335 29.84560720779629 79.33333333333336 19.31227387446296 79.86666666666669 14.912273874462954 C 80.66666666666669 7.045607207796309 80.80000000000001 6.912273874462954 85.33333333333336 6.112273874462971 C 87.86666666666669 5.57894054112964 92.80000000000001 5.178940541129634 96.13333333333335 5.045607207796309 L 102.13333333333335 4.912273874462954 L 108.4 27.178940541129634 Z  M 126.00000000000003 6.912273874462954 C 140.4 9.978940541129646 168.8 24.77894054112963 165.73333333333335 27.712273874462966 C 163.0666666666667 30.11227387446297 120.66666666666669 48.77894054112963 120.00000000000003 47.978940541129646 C 119.06666666666669 47.04560720779631 108.00000000000003 7.8456072077962915 108.00000000000003 5.8456072077962915 C 108.00000000000003 4.378940541129623 116.00000000000003 4.778940541129629 126.00000000000003 6.912273874462954 Z  M 72.26666666666668 38.6456072077963 C 71.20000000000002 53.31227387446296 70.40000000000002 57.84560720779629 67.60000000000002 63.978940541129646 C 64.00000000000001 71.84560720779629 53.46666666666668 83.57894054112964 50.000000000000014 83.57894054112964 C 48.93333333333335 83.57894054112964 48.000000000000014 83.44560720779629 48.000000000000014 83.17894054112963 C 48.000000000000014 82.91227387446295 44.40000000000002 72.91227387446295 40.000000000000014 60.912273874462954 C 35.600000000000016 48.912273874462954 32.00000000000002 37.978940541129646 32.00000000000002 36.77894054112963 C 32.00000000000002 35.445607207796286 36.00000000000002 31.178940541129634 41.06666666666669 27.178940541129634 C 52.40000000000002 18.245607207796297 56.000000000000014 15.978940541129646 65.20000000000002 12.112273874462971 L 72.66666666666669 9.178940541129634 L 73.06666666666669 14.912273874462954 C 73.33333333333336 18.245607207796297 72.93333333333335 28.912273874462954 72.26666666666668 38.6456072077963 Z  M 176.93333333333334 37.04560720779631 C 179.73333333333335 39.978940541129646 183.73333333333335 45.04560720779631 186.00000000000003 48.2456072077963 C 191.60000000000002 56.11227387446297 199.20000000000002 72.91227387446295 197.86666666666667 74.2456072077963 C 196.26666666666668 75.57894054112964 185.0666666666667 79.04560720779631 176.26666666666668 80.77894054112963 C 159.60000000000002 84.2456072077963 147.4666666666667 81.97894054112965 136.00000000000003 73.57894054112964 C 129.4666666666667 68.77894054112963 120.93333333333334 57.57894054112964 121.73333333333335 55.04560720779631 C 122.13333333333335 53.84560720779629 168.00000000000003 32.11227387446297 170.93333333333334 31.712273874462966 C 171.4666666666667 31.57894054112964 174.13333333333335 33.978940541129646 176.93333333333334 37.04560720779631 Z  M 36.666666666666686 61.178940541129634 C 40.80000000000001 72.6456072077963 43.86666666666669 82.77894054112963 43.33333333333336 83.57894054112964 C 42.80000000000001 84.37894054112962 35.600000000000016 84.91227387446295 24.533333333333353 84.91227387446295 C 9.33333333333335 84.91227387446295 6.666666666666686 84.6456072077963 6.666666666666686 82.91227387446295 C 6.666666666666686 79.17894054112963 12.133333333333354 64.37894054112962 16.266666666666687 56.912273874462954 C 20.266666666666687 49.712273874462966 28.00000000000002 39.04560720779631 28.666666666666686 39.84560720779629 C 28.80000000000002 40.11227387446297 32.40000000000002 49.712273874462966 36.666666666666686 61.178940541129634 Z  M 115.60000000000002 61.84560720779629 C 114.53333333333336 68.37894054112962 108.53333333333336 76.77894054112963 102.66666666666669 79.71227387446297 C 100.13333333333335 81.04560720779631 93.60000000000002 82.51227387446298 88.13333333333335 83.04560720779631 C 78.80000000000001 83.97894054112965 78.40000000000002 83.84560720779629 79.73333333333335 81.44560720779629 C 82.80000000000001 75.71227387446297 93.06666666666668 67.31227387446296 103.20000000000002 62.37894054112962 C 109.20000000000002 59.445607207796286 114.53333333333336 56.912273874462954 115.20000000000002 56.912273874462954 C 115.86666666666667 56.912273874462954 116.00000000000003 59.178940541129634 115.60000000000002 61.84560720779629 Z  M 160.66666666666669 89.44560720779629 C 163.0666666666667 90.51227387446296 165.73333333333335 92.51227387446296 166.4 93.8456072077963 C 169.4666666666667 99.8456072077963 162.4 109.57894054112963 150.93333333333334 115.0456072077963 C 145.60000000000002 117.57894054112963 139.4666666666667 116.51227387446296 136.66666666666669 112.51227387446296 C 134.66666666666669 109.57894054112963 133.86666666666667 97.71227387446297 135.4666666666667 93.57894054112963 C 137.60000000000002 88.2456072077963 152.00000000000003 85.84560720779629 160.66666666666669 89.44560720779629 Z  M 61.86666666666669 90.37894054112964 C 67.73333333333335 93.17894054112963 68.53333333333335 97.8456072077963 65.20000000000002 110.11227387446297 C 63.60000000000002 116.11227387446297 62.000000000000014 120.77894054112963 61.73333333333335 120.51227387446296 C 61.60000000000002 120.2456072077963 58.93333333333335 113.31227387446296 56.000000000000014 105.17894054112963 C 51.33333333333336 91.97894054112963 51.06666666666669 90.37894054112964 53.06666666666669 89.84560720779629 C 57.06666666666669 88.77894054112963 58.40000000000002 88.91227387446295 61.86666666666669 90.37894054112964 Z  M 115.73333333333335 91.4456072077963 C 125.86666666666667 96.6456072077963 129.60000000000002 104.51227387446296 127.73333333333335 116.6456072077963 C 126.53333333333336 124.6456072077963 120.53333333333336 135.97894054112965 114.66666666666669 141.4456072077963 C 110.66666666666669 145.31227387446296 80.40000000000002 166.2456072077963 79.06666666666668 166.2456072077963 C 78.00000000000001 166.2456072077963 65.33333333333336 132.11227387446297 65.33333333333336 129.31227387446296 C 65.33333333333336 127.84560720779629 74.00000000000001 94.2456072077963 75.33333333333336 90.51227387446296 C 75.73333333333335 89.31227387446296 80.66666666666669 88.91227387446295 93.33333333333336 88.91227387446295 C 107.86666666666667 88.91227387446295 111.60000000000002 89.31227387446296 115.73333333333335 91.4456072077963 Z  M 22.00000000000002 93.57894054112963 C 4.2666666666666835 98.91227387446297 5.3333333333333535 98.91227387446297 5.3333333333333535 94.2456072077963 L 5.3333333333333535 90.2456072077963 L 19.066666666666684 90.37894054112964 L 32.666666666666686 90.37894054112964 L 22.00000000000002 93.57894054112963 Z  M 54.000000000000014 109.0456072077963 L 60.40000000000002 126.6456072077963 L 52.533333333333346 154.37894054112962 C 48.26666666666668 169.71227387446297 44.26666666666668 182.2456072077963 43.86666666666669 182.2456072077963 C 41.86666666666669 182.2456072077963 31.066666666666684 171.57894054112964 25.066666666666684 163.71227387446297 C 12.666666666666686 147.17894054112963 5.466666666666686 127.71227387446297 5.3333333333333535 110.2456072077963 L 5.3333333333333535 102.91227387446297 L 25.066666666666684 97.31227387446296 C 35.86666666666668 94.2456072077963 45.33333333333336 91.71227387446297 46.133333333333354 91.71227387446297 C 46.93333333333335 91.57894054112963 50.533333333333346 99.4456072077963 54.000000000000014 109.0456072077963 Z  M 202.66666666666669 103.8456072077963 C 202.66666666666669 110.6456072077963 201.73333333333335 120.37894054112964 200.66666666666669 125.57894054112963 C 196.93333333333334 143.5789405411296 182.93333333333334 166.51227387446295 168.00000000000003 179.31227387446296 C 161.73333333333335 184.6456072077963 149.0666666666667 192.91227387446295 147.20000000000002 192.91227387446295 C 145.4666666666667 192.91227387446295 142.66666666666669 171.8456072077963 142.66666666666669 158.51227387446295 C 142.66666666666669 140.51227387446295 151.20000000000002 122.37894054112964 164.66666666666669 111.8456072077963 C 175.86666666666667 103.17894054112963 196.00000000000003 91.97894054112963 201.0666666666667 91.71227387446297 C 202.26666666666668 91.57894054112963 202.66666666666669 94.91227387446297 202.66666666666669 103.8456072077963 Z  M 69.73333333333335 152.6456072077963 L 75.73333333333335 169.0456072077963 L 63.20000000000002 177.57894054112964 C 56.26666666666668 182.2456072077963 50.666666666666686 185.71227387446297 50.666666666666686 185.17894054112963 C 50.533333333333346 183.8456072077963 63.20000000000002 135.71227387446297 63.46666666666668 135.97894054112965 C 63.73333333333335 136.11227387446297 66.40000000000002 143.5789405411296 69.73333333333335 152.6456072077963 Z  M 126.66666666666669 154.51227387446295 C 135.0666666666667 158.91227387446295 137.20000000000002 162.6456072077963 139.4666666666667 176.91227387446295 C 142.26666666666668 194.6456072077963 142.13333333333335 195.57894054112964 133.73333333333335 198.51227387446295 C 124.93333333333334 201.4456072077963 106.00000000000003 203.71227387446297 97.46666666666668 202.6456072077963 L 90.93333333333335 201.8456072077963 L 86.00000000000001 188.11227387446297 C 83.33333333333336 180.51227387446295 81.46666666666668 173.8456072077963 81.86666666666669 173.17894054112963 C 83.33333333333336 170.77894054112963 107.20000000000002 155.0456072077963 111.86666666666667 153.4456072077963 C 118.53333333333336 151.0456072077963 120.00000000000003 151.17894054112963 126.66666666666669 154.51227387446295 Z  M 82.40000000000002 187.4456072077963 C 84.80000000000001 193.8456072077963 86.66666666666669 199.71227387446297 86.66666666666669 200.2456072077963 C 86.66666666666669 202.11227387446297 75.73333333333335 199.57894054112964 65.73333333333335 195.31227387446296 C 57.20000000000002 191.8456072077963 56.000000000000014 190.91227387446295 57.60000000000002 189.31227387446296 C 59.73333333333335 187.17894054112963 76.26666666666668 175.71227387446297 77.33333333333336 175.71227387446297 C 77.73333333333335 175.57894054112964 80.00000000000001 180.91227387446295 82.40000000000002 187.4456072077963 Z " fill-rule="evenodd" fill="rgb(255,255,255)" stroke-width="0.13333333333333333" stroke="rgba(0,0,0,0)" stroke-linejoin="miter" stroke-linecap="butt"/><path d=" M 249.6 77.95 Q 250 77.95 250.325 78.275 L 252.225 80.35 Q 250.025 82.9 246.8875 84.325 Q 243.75 85.75 239.325 85.75 Q 235.45 85.75 232.3 84.4125 Q 229.15 83.075 226.925 80.6625 Q 224.7 78.25 223.475 74.875 Q 222.25 71.5 222.25 67.45 Q 222.25 63.4 223.5625 60.025 Q 224.875 56.65 227.25 54.225 Q 229.625 51.8 232.9375 50.4625 Q 236.25 49.125 240.25 49.125 Q 244.2 49.125 247.0625 50.35 Q 249.925 51.575 252.15 53.675 L 250.575 55.9 Q 250.4 56.15 250.175 56.3125 Q 249.95 56.475 249.525 56.475 Q 249.2 56.475 248.8375 56.2375 Q 248.475 56 247.975 55.65 Q 247.475 55.3 246.8 54.9 Q 246.125 54.5 245.2 54.15 Q 244.275 53.8 243.05 53.5625 Q 241.825 53.325 240.225 53.325 Q 237.35 53.325 234.9625 54.3125 Q 232.575 55.3 230.85 57.125 Q 229.125 58.95 228.1625 61.575 Q 227.2 64.2 227.2 67.45 Q 227.2 70.8 228.1625 73.425 Q 229.125 76.05 230.7875 77.8625 Q 232.45 79.675 234.725 80.625 Q 237 81.575 239.625 81.575 Q 241.225 81.575 242.5 81.3875 Q 243.775 81.2 244.8625 80.80000000000001 Q 245.95 80.4 246.8875 79.7875 Q 247.825 79.175 248.775 78.325 Q 249.2 77.95 249.6 77.95 Z  M 268.15 59.625 Q 270.925 59.625 273.1625 60.55 Q 275.4 61.475 276.9625 63.175 Q 278.525 64.875 279.3625 67.2875 Q 280.2 69.7 280.2 72.675 Q 280.2 75.675 279.3625 78.075 Q 278.525 80.475 276.9625 82.17500000000001 Q 275.4 83.875 273.1625 84.7875 Q 270.925 85.7 268.15 85.7 Q 265.375 85.7 263.1375 84.7875 Q 260.9 83.875 259.325 82.17500000000001 Q 257.75 80.475 256.9 78.075 Q 256.05 75.675 256.05 72.675 Q 256.05 69.7 256.9 67.2875 Q 257.75 64.875 259.325 63.175 Q 260.9 61.475 263.1375 60.55 Q 265.375 59.625 268.15 59.625 Z  M 268.15 82.225 Q 271.9 82.225 273.75 79.7125 Q 275.6 77.2 275.6 72.7 Q 275.6 68.175 273.75 65.65 Q 271.9 63.125 268.15 63.125 Q 266.25 63.125 264.85 63.775 Q 263.45 64.425 262.5125 65.65 Q 261.575 66.875 261.1125 68.6625 Q 260.65 70.45 260.65 72.7 Q 260.65 74.95 261.1125 76.725 Q 261.575 78.5 262.5125 79.7125 Q 263.45 80.92500000000001 264.85 81.575 Q 266.25 82.225 268.15 82.225 Z  M 285.7 85.35 L 285.7 60.025 L 288.35 60.025 Q 289.3 60.025 289.55 60.95 L 289.9 63.7 Q 291.55 61.875 293.5875 60.75 Q 295.625 59.625 298.3 59.625 Q 300.375 59.625 301.9625 60.3125 Q 303.55 61 304.6125 62.2625 Q 305.675 63.525 306.225 65.3 Q 306.775 67.075 306.775 69.225 L 306.775 85.35 L 302.325 85.35 L 302.325 69.225 Q 302.325 66.35 301.0125 64.7625 Q 299.7 63.175 297 63.175 Q 295.025 63.175 293.3125 64.125 Q 291.6 65.075 290.15 66.7 L 290.15 85.35 L 285.7 85.35 Z  M 313.5 85.35 L 313.5 60.025 L 316.15 60.025 Q 317.1 60.025 317.35 60.95 L 317.7 63.7 Q 319.35 61.875 321.3875 60.75 Q 323.425 59.625 326.1 59.625 Q 328.175 59.625 329.7625 60.3125 Q 331.35 61 332.4125 62.2625 Q 333.475 63.525 334.025 65.3 Q 334.575 67.075 334.575 69.225 L 334.575 85.35 L 330.125 85.35 L 330.125 69.225 Q 330.125 66.35 328.8125 64.7625 Q 327.5 63.175 324.8 63.175 Q 322.825 63.175 321.1125 64.125 Q 319.4 65.075 317.95 66.7 L 317.95 85.35 L 313.5 85.35 Z  M 351.325 59.625 Q 353.6 59.625 355.525 60.3875 Q 357.45 61.15 358.85 62.5875 Q 360.25 64.025 361.0375 66.1375 Q 361.825 68.25 361.825 70.95 Q 361.825 72 361.6 72.35 Q 361.375 72.7 360.75 72.7 L 343.9 72.7 Q 343.95 75.1 344.55 76.875 Q 345.15 78.65 346.2 79.8375 Q 347.25 81.025 348.7 81.61250000000001 Q 350.15 82.2 351.95 82.2 Q 353.625 82.2 354.8375 81.8125 Q 356.04999999999995 81.42500000000001 356.92499999999995 80.975 Q 357.79999999999995 80.525 358.3875 80.1375 Q 358.975 79.75 359.4 79.75 Q 359.95 79.75 360.25 80.175 L 361.5 81.80000000000001 Q 360.67499999999995 82.80000000000001 359.525 83.5375 Q 358.375 84.275 357.0625 84.75 Q 355.75 85.225 354.35 85.4625 Q 352.95 85.7 351.575 85.7 Q 348.95 85.7 346.7375 84.8125 Q 344.525 83.92500000000001 342.9125 82.2125 Q 341.3 80.5 340.4 77.975 Q 339.5 75.45 339.5 72.175 Q 339.5 69.525 340.3125 67.225 Q 341.125 64.925 342.65 63.2375 Q 344.175 61.55 346.375 60.5875 Q 348.575 59.625 351.325 59.625 Z  M 351.42499999999995 62.9 Q 348.2 62.9 346.35 64.7625 Q 344.5 66.625 344.05 69.925 L 357.825 69.925 Q 357.825 68.375 357.4 67.0875 Q 356.975 65.8 356.15 64.8625 Q 355.325 63.925 354.1375 63.4125 Q 352.95 62.9 351.42499999999995 62.9 Z  M 384.775 64.525 Q 384.575 64.8 384.375 64.95 Q 384.175 65.1 383.8 65.1 Q 383.425 65.1 382.98749999999995 64.7875 Q 382.54999999999995 64.475 381.875 64.1 Q 381.2 63.725 380.23749999999995 63.4125 Q 379.275 63.1 377.875 63.1 Q 376.025 63.1 374.6 63.7625 Q 373.17499999999995 64.425 372.2125 65.675 Q 371.25 66.925 370.7625 68.7 Q 370.275 70.475 370.275 72.675 Q 370.275 74.975 370.79999999999995 76.7625 Q 371.325 78.55 372.275 79.7625 Q 373.225 80.975 374.5875 81.61250000000001 Q 375.95 82.25 377.65 82.25 Q 379.275 82.25 380.325 81.86250000000001 Q 381.375 81.475 382.075 81 Q 382.775 80.525 383.225 80.1375 Q 383.675 79.75 384.125 79.75 Q 384.7 79.75 384.975 80.175 L 386.225 81.80000000000001 Q 384.575 83.825 382.1 84.7625 Q 379.625 85.7 376.875 85.7 Q 374.5 85.7 372.4625 84.825 Q 370.42499999999995 83.95 368.92499999999995 82.2875 Q 367.42499999999995 80.625 366.5625 78.2 Q 365.7 75.775 365.7 72.675 Q 365.7 69.85 366.48749999999995 67.45 Q 367.275 65.05 368.7875 63.3125 Q 370.29999999999995 61.575 372.525 60.6 Q 374.75 59.625 377.625 59.625 Q 380.275 59.625 382.325 60.4875 Q 384.375 61.35 385.95 62.925 L 384.775 64.525 Z  M 398.525 85.75 Q 395.525 85.75 393.9125 84.075 Q 392.29999999999995 82.4 392.29999999999995 79.25 L 392.29999999999995 63.75 L 389.25 63.75 Q 388.85 63.75 388.575 63.5125 Q 388.29999999999995 63.275 388.29999999999995 62.775 L 388.29999999999995 61 L 392.45 60.475 L 393.475 52.65 Q 393.525 52.275 393.79999999999995 52.0375 Q 394.075 51.8 394.5 51.8 L 396.75 51.8 L 396.75 60.525 L 404 60.525 L 404 63.75 L 396.75 63.75 L 396.75 78.95 Q 396.75 80.55 397.525 81.325 Q 398.29999999999995 82.1 399.525 82.1 Q 400.225 82.1 400.73749999999995 81.9125 Q 401.25 81.725 401.625 81.5 Q 402 81.275 402.2625 81.0875 Q 402.525 80.9 402.725 80.9 Q 403.075 80.9 403.35 81.325 L 404.65 83.45 Q 403.5 84.525 401.875 85.1375 Q 400.25 85.75 398.525 85.75 Z  M 419.525 59.625 Q 421.79999999999995 59.625 423.725 60.3875 Q 425.65 61.15 427.05 62.5875 Q 428.45 64.025 429.2375 66.1375 Q 430.025 68.25 430.025 70.95 Q 430.025 72 429.8 72.35 Q 429.575 72.7 428.95 72.7 L 412.1 72.7 Q 412.15 75.1 412.75 76.875 Q 413.35 78.65 414.4 79.8375 Q 415.45 81.025 416.9 81.61250000000001 Q 418.35 82.2 420.15 82.2 Q 421.825 82.2 423.0375 81.8125 Q 424.25 81.42500000000001 425.125 80.975 Q 426 80.525 426.5875 80.1375 Q 427.175 79.75 427.6 79.75 Q 428.15 79.75 428.45 80.175 L 429.7 81.80000000000001 Q 428.875 82.80000000000001 427.725 83.5375 Q 426.575 84.275 425.2625 84.75 Q 423.95 85.225 422.54999999999995 85.4625 Q 421.15 85.7 419.775 85.7 Q 417.15 85.7 414.9375 84.8125 Q 412.725 83.92500000000001 411.11249999999995 82.2125 Q 409.5 80.5 408.6 77.975 Q 407.7 75.45 407.7 72.175 Q 407.7 69.525 408.5125 67.225 Q 409.325 64.925 410.85 63.2375 Q 412.375 61.55 414.575 60.5875 Q 416.775 59.625 419.525 59.625 Z  M 419.625 62.9 Q 416.4 62.9 414.54999999999995 64.7625 Q 412.7 66.625 412.25 69.925 L 426.025 69.925 Q 426.025 68.375 425.6 67.0875 Q 425.175 65.8 424.35 64.8625 Q 423.525 63.925 422.3375 63.4125 Q 421.15 62.9 419.625 62.9 Z  M 453.525 85.35 Q 452.57500000000005 85.35 452.32500000000005 84.42500000000001 L 451.925 81.35 Q 450.3 83.325 448.2125 84.5125 Q 446.125 85.7 443.425 85.7 Q 441.25 85.7 439.475 84.86250000000001 Q 437.70000000000005 84.025 436.45000000000005 82.4 Q 435.20000000000005 80.775 434.525 78.35 Q 433.85 75.925 433.85 72.775 Q 433.85 69.975 434.6 67.5625 Q 435.35 65.15 436.76250000000005 63.375 Q 438.175 61.6 440.20000000000005 60.5875 Q 442.225 59.575 444.8 59.575 Q 447.125 59.575 448.775 60.3625 Q 450.425 61.15 451.725 62.575 L 451.725 48.525 L 456.175 48.525 L 456.175 85.35 L 453.525 85.35 Z  M 444.9 82.1 Q 447.07500000000005 82.1 448.7125 81.1 Q 450.35 80.1 451.725 78.275 L 451.725 66.025 Q 450.5 64.375 449.0375 63.7125 Q 447.57500000000005 63.05 445.8 63.05 Q 442.25 63.05 440.35 65.575 Q 438.45000000000005 68.1 438.45000000000005 72.775 Q 438.45000000000005 75.25 438.875 77.0125 Q 439.3 78.775 440.125 79.9125 Q 440.95000000000005 81.05000000000001 442.15 81.575 Q 443.35 82.1 444.9 82.1 Z  M 238.275 141.5 Q 240.5 141.5 242.25 140.75 Q 244 140 245.2125 138.64999999999998 Q 246.425 137.3 247.0625 135.425 Q 247.7 133.55 247.7 131.3 L 247.7 109.52499999999999 L 252.525 109.52499999999999 L 252.525 131.3 Q 252.525 134.39999999999998 251.5375 137.05 Q 250.55 139.7 248.7125 141.6375 Q 246.875 143.575 244.225 144.675 Q 241.575 145.77499999999998 238.275 145.77499999999998 Q 234.975 145.77499999999998 232.325 144.675 Q 229.675 143.575 227.825 141.6375 Q 225.975 139.7 224.9875 137.05 Q 224 134.39999999999998 224 131.3 L 224 109.52499999999999 L 228.825 109.52499999999999 L 228.825 131.27499999999998 Q 228.825 133.52499999999998 229.4625 135.39999999999998 Q 230.1 137.27499999999998 231.3125 138.625 Q 232.525 139.975 234.2875 140.7375 Q 236.05 141.5 238.275 141.5 Z  M 260.15 145.35 L 260.15 120.02499999999999 L 262.7 120.02499999999999 Q 263.425 120.02499999999999 263.7 120.3 Q 263.975 120.57499999999999 264.075 121.25 L 264.375 125.19999999999999 Q 265.675 122.55 267.5875 121.0625 Q 269.5 119.57499999999999 272.075 119.57499999999999 Q 273.125 119.57499999999999 273.975 119.8125 Q 274.825 120.05 275.55 120.475 L 274.975 123.8 Q 274.8 124.425 274.2 124.425 Q 273.85 124.425 273.125 124.1875 Q 272.4 123.94999999999999 271.1 123.94999999999999 Q 268.775 123.94999999999999 267.2125 125.3 Q 265.65 126.64999999999999 264.6 129.225 L 264.6 145.35 L 260.15 145.35 Z  M 280.45 145.35 L 280.45 108.52499999999999 L 284.925 108.52499999999999 L 284.925 123.675 Q 286.5 121.85 288.5375 120.7375 Q 290.575 119.625 293.2 119.625 Q 295.4 119.625 297.175 120.44999999999999 Q 298.95 121.27499999999999 300.2 122.9125 Q 301.45 124.55 302.125 126.96249999999999 Q 302.8 129.375 302.8 132.52499999999998 Q 302.8 135.325 302.05 137.7375 Q 301.3 140.14999999999998 299.8875 141.9125 Q 298.475 143.675 296.4375 144.6875 Q 294.4 145.7 291.85 145.7 Q 289.4 145.7 287.6875 144.75 Q 285.975 143.8 284.7 142.1 L 284.475 144.39999999999998 Q 284.275 145.35 283.325 145.35 L 280.45 145.35 Z  M 291.75 123.175 Q 289.575 123.175 287.9375 124.175 Q 286.3 125.175 284.925 127 L 284.925 139.25 Q 286.125 140.89999999999998 287.5875 141.575 Q 289.05 142.25 290.85 142.25 Q 294.4 142.25 296.3 139.725 Q 298.2 137.2 298.2 132.52499999999998 Q 298.2 130.05 297.7625 128.27499999999998 Q 297.325 126.5 296.5 125.3625 Q 295.675 124.225 294.475 123.69999999999999 Q 293.275 123.175 291.75 123.175 Z  M 326.85 145.35 L 324.875 145.35 Q 324.225 145.35 323.82500000000005 145.14999999999998 Q 323.425 144.95 323.3 144.3 L 322.8 141.95 Q 321.8 142.85 320.85 143.5625 Q 319.9 144.27499999999998 318.85 144.7625 Q 317.8 145.25 316.6125 145.5 Q 315.425 145.75 313.975 145.75 Q 312.5 145.75 311.2125 145.33749999999998 Q 309.925 144.925 308.975 144.1 Q 308.025 143.27499999999998 307.4625 142.0125 Q 306.9 140.75 306.9 139.02499999999998 Q 306.9 137.52499999999998 307.725 136.1375 Q 308.55 134.75 310.3875 133.675 Q 312.225 132.6 315.20000000000005 131.9125 Q 318.175 131.225 322.475 131.125 L 322.475 129.14999999999998 Q 322.475 126.19999999999999 321.2125 124.6875 Q 319.95000000000005 123.175 317.475 123.175 Q 315.85 123.175 314.7375 123.58749999999999 Q 313.625 124 312.8125 124.51249999999999 Q 312 125.02499999999999 311.4125 125.4375 Q 310.825 125.85 310.25 125.85 Q 309.8 125.85 309.4625 125.6125 Q 309.125 125.375 308.925 125.02499999999999 L 308.125 123.6 Q 310.225 121.57499999999999 312.65 120.57499999999999 Q 315.07500000000005 119.57499999999999 318.025 119.57499999999999 Q 320.15 119.57499999999999 321.8 120.27499999999999 Q 323.45000000000005 120.975 324.57500000000005 122.225 Q 325.70000000000005 123.475 326.275 125.25 Q 326.85 127.02499999999999 326.85 129.14999999999998 L 326.85 145.35 Z  M 315.3 142.625 Q 316.475 142.625 317.45000000000005 142.3875 Q 318.425 142.14999999999998 319.2875 141.71249999999998 Q 320.15 141.27499999999998 320.9375 140.64999999999998 Q 321.725 140.02499999999998 322.475 139.225 L 322.475 133.95 Q 319.4 134.05 317.25 134.4375 Q 315.1 134.825 313.75 135.45 Q 312.4 136.075 311.7875 136.925 Q 311.175 137.77499999999998 311.175 138.825 Q 311.175 139.825 311.5 140.55 Q 311.825 141.27499999999998 312.375 141.7375 Q 312.925 142.2 313.675 142.4125 Q 314.425 142.625 315.3 142.625 Z  M 333.6 145.35 L 333.6 120.02499999999999 L 336.25 120.02499999999999 Q 337.20000000000005 120.02499999999999 337.45000000000005 120.94999999999999 L 337.8 123.69999999999999 Q 339.45000000000005 121.875 341.4875 120.75 Q 343.52500000000003 119.625 346.20000000000005 119.625 Q 348.275 119.625 349.8625 120.3125 Q 351.45000000000005 121 352.51250000000005 122.26249999999999 Q 353.57500000000005 123.52499999999999 354.125 125.3 Q 354.675 127.07499999999999 354.675 129.225 L 354.675 145.35 L 350.225 145.35 L 350.225 129.225 Q 350.225 126.35 348.9125 124.76249999999999 Q 347.6 123.175 344.90000000000003 123.175 Q 342.925 123.175 341.21250000000003 124.125 Q 339.5 125.07499999999999 338.05 126.69999999999999 L 338.05 145.35 L 333.6 145.35 Z  M 396.15000000000003 109.52499999999999 L 396.15000000000003 113.6 L 384.57500000000005 113.6 L 384.57500000000005 145.35 L 379.725 145.35 L 379.725 113.6 L 368.1 113.6 L 368.1 109.52499999999999 L 396.15000000000003 109.52499999999999 Z  M 400.55000000000007 145.35 L 400.55000000000007 120.02499999999999 L 403.1 120.02499999999999 Q 403.82500000000005 120.02499999999999 404.1 120.3 Q 404.375 120.57499999999999 404.475 121.25 L 404.77500000000003 125.19999999999999 Q 406.07500000000005 122.55 407.98750000000007 121.0625 Q 409.90000000000003 119.57499999999999 412.475 119.57499999999999 Q 413.52500000000003 119.57499999999999 414.375 119.8125 Q 415.225 120.05 415.95000000000005 120.475 L 415.375 123.8 Q 415.20000000000005 124.425 414.6 124.425 Q 414.25 124.425 413.52500000000003 124.1875 Q 412.80000000000007 123.94999999999999 411.5 123.94999999999999 Q 409.17500000000007 123.94999999999999 407.61250000000007 125.3 Q 406.05000000000007 126.64999999999999 405 129.225 L 405 145.35 L 400.55000000000007 145.35 Z  M 430.95000000000005 119.625 Q 433.725 119.625 435.96250000000003 120.55 Q 438.20000000000005 121.475 439.76250000000005 123.175 Q 441.32500000000005 124.875 442.1625 127.2875 Q 443.00000000000006 129.7 443.00000000000006 132.675 Q 443.00000000000006 135.675 442.1625 138.075 Q 441.32500000000005 140.475 439.76250000000005 142.175 Q 438.20000000000005 143.875 435.96250000000003 144.7875 Q 433.725 145.7 430.95000000000005 145.7 Q 428.17500000000007 145.7 425.9375 144.7875 Q 423.70000000000005 143.875 422.125 142.175 Q 420.55000000000007 140.475 419.70000000000005 138.075 Q 418.85 135.675 418.85 132.675 Q 418.85 129.7 419.70000000000005 127.2875 Q 420.55000000000007 124.875 422.125 123.175 Q 423.70000000000005 121.475 425.9375 120.55 Q 428.17500000000007 119.625 430.95000000000005 119.625 Z  M 430.95000000000005 142.225 Q 434.70000000000005 142.225 436.55000000000007 139.71249999999998 Q 438.40000000000003 137.2 438.40000000000003 132.7 Q 438.40000000000003 128.175 436.55000000000007 125.64999999999999 Q 434.70000000000005 123.125 430.95000000000005 123.125 Q 429.05000000000007 123.125 427.65000000000003 123.77499999999999 Q 426.25 124.425 425.3125 125.64999999999999 Q 424.375 126.875 423.9125 128.6625 Q 423.45000000000005 130.45 423.45000000000005 132.7 Q 423.45000000000005 134.95 423.9125 136.725 Q 424.375 138.5 425.3125 139.71249999999998 Q 426.25 140.925 427.65000000000003 141.575 Q 429.05000000000007 142.225 430.95000000000005 142.225 Z  M 448.50000000000006 153.925 L 448.50000000000006 120.02499999999999 L 451.1500000000001 120.02499999999999 Q 452.1 120.02499999999999 452.35 120.94999999999999 L 452.725 123.94999999999999 Q 454.35 121.975 456.43750000000006 120.77499999999999 Q 458.5250000000001 119.57499999999999 461.25000000000006 119.57499999999999 Q 463.42500000000007 119.57499999999999 465.20000000000005 120.4125 Q 466.975 121.25 468.225 122.88749999999999 Q 469.475 124.52499999999999 470.1500000000001 126.94999999999999 Q 470.82500000000005 129.375 470.82500000000005 132.52499999999998 Q 470.82500000000005 135.325 470.07500000000005 137.7375 Q 469.32500000000005 140.14999999999998 467.92500000000007 141.9125 Q 466.5250000000001 143.675 464.48750000000007 144.6875 Q 462.45000000000005 145.7 459.9000000000001 145.7 Q 457.55000000000007 145.7 455.88750000000005 144.925 Q 454.225 144.14999999999998 452.95000000000005 142.725 L 452.95000000000005 153.925 L 448.50000000000006 153.925 Z  M 459.7750000000001 123.175 Q 457.6 123.175 455.9625000000001 124.175 Q 454.32500000000005 125.175 452.95000000000005 127 L 452.95000000000005 139.25 Q 454.17500000000007 140.89999999999998 455.63750000000005 141.575 Q 457.1 142.25 458.9000000000001 142.25 Q 462.42500000000007 142.25 464.32500000000005 139.725 Q 466.225 137.2 466.225 132.52499999999998 Q 466.225 130.05 465.7875 128.27499999999998 Q 465.35 126.5 464.5250000000001 125.3625 Q 463.70000000000005 124.225 462.50000000000006 123.69999999999999 Q 461.30000000000007 123.175 459.7750000000001 123.175 Z  M 481.05000000000007 120.02499999999999 L 481.05000000000007 145.35 L 476.6 145.35 L 476.6 120.02499999999999 L 481.05000000000007 120.02499999999999 Z  M 482.05000000000007 112.07499999999999 Q 482.05000000000007 112.725 481.7875 113.2875 Q 481.52500000000003 113.85 481.08750000000003 114.2875 Q 480.65000000000003 114.725 480.07500000000005 114.975 Q 479.50000000000006 115.225 478.85 115.225 Q 478.20000000000005 115.225 477.63750000000005 114.975 Q 477.07500000000005 114.725 476.63750000000005 114.2875 Q 476.20000000000005 113.85 475.95000000000005 113.2875 Q 475.70000000000005 112.725 475.70000000000005 112.07499999999999 Q 475.70000000000005 111.42499999999998 475.95000000000005 110.83749999999999 Q 476.20000000000005 110.25 476.63750000000005 109.8125 Q 477.07500000000005 109.375 477.63750000000005 109.125 Q 478.20000000000005 108.875 478.85 108.875 Q 479.50000000000006 108.875 480.07500000000005 109.125 Q 480.65000000000003 109.375 481.08750000000003 109.8125 Q 481.52500000000003 110.25 481.7875 110.83749999999999 Q 482.05000000000007 111.42499999999998 482.05000000000007 112.07499999999999 Z  M 506.17500000000007 124.52499999999999 Q 505.9750000000001 124.8 505.77500000000003 124.94999999999999 Q 505.57500000000005 125.1 505.20000000000005 125.1 Q 504.82500000000005 125.1 504.38750000000005 124.7875 Q 503.95000000000005 124.475 503.27500000000003 124.1 Q 502.6000000000001 123.725 501.63750000000005 123.4125 Q 500.67500000000007 123.1 499.27500000000003 123.1 Q 497.42500000000007 123.1 496.00000000000006 123.76249999999999 Q 494.57500000000005 124.425 493.61250000000007 125.675 Q 492.65000000000003 126.925 492.1625000000001 128.7 Q 491.67500000000007 130.475 491.67500000000007 132.675 Q 491.67500000000007 134.975 492.20000000000005 136.7625 Q 492.7250000000001 138.55 493.67500000000007 139.7625 Q 494.62500000000006 140.975 495.98750000000007 141.6125 Q 497.3500000000001 142.25 499.05000000000007 142.25 Q 500.67500000000007 142.25 501.7250000000001 141.8625 Q 502.77500000000003 141.475 503.4750000000001 141 Q 504.17500000000007 140.52499999999998 504.62500000000006 140.1375 Q 505.07500000000005 139.75 505.52500000000003 139.75 Q 506.1000000000001 139.75 506.37500000000006 140.175 L 507.62500000000006 141.8 Q 505.9750000000001 143.825 503.50000000000006 144.7625 Q 501.02500000000003 145.7 498.27500000000003 145.7 Q 495.90000000000003 145.7 493.86250000000007 144.825 Q 491.82500000000005 143.95 490.32500000000005 142.2875 Q 488.82500000000005 140.625 487.96250000000003 138.2 Q 487.1000000000001 135.77499999999998 487.1000000000001 132.675 Q 487.1000000000001 129.85 487.88750000000005 127.44999999999999 Q 488.67500000000007 125.05 490.18750000000006 123.3125 Q 491.70000000000005 121.57499999999999 493.92500000000007 120.6 Q 496.15000000000003 119.625 499.02500000000003 119.625 Q 501.67500000000007 119.625 503.7250000000001 120.4875 Q 505.77500000000003 121.35 507.3500000000001 122.925 L 506.17500000000007 124.52499999999999 Z  M 526.75 124.19999999999999 Q 526.45 124.75 525.825 124.75 Q 525.45 124.75 524.9750000000001 124.475 Q 524.5 124.19999999999999 523.8125 123.8625 Q 523.125 123.52499999999999 522.1750000000001 123.2375 Q 521.2250000000001 122.94999999999999 519.9250000000001 122.94999999999999 Q 518.8000000000001 122.94999999999999 517.9000000000001 123.2375 Q 517 123.52499999999999 516.3625000000001 124.02499999999999 Q 515.7250000000001 124.52499999999999 515.3875 125.1875 Q 515.0500000000001 125.85 515.0500000000001 126.625 Q 515.0500000000001 127.6 515.6125000000001 128.25 Q 516.1750000000001 128.89999999999998 517.1000000000001 129.375 Q 518.0250000000001 129.85 519.2 130.21249999999998 Q 520.375 130.575 521.6125000000001 130.9875 Q 522.8500000000001 131.39999999999998 524.0250000000001 131.89999999999998 Q 525.2 132.39999999999998 526.125 133.14999999999998 Q 527.0500000000001 133.89999999999998 527.6125000000001 134.9875 Q 528.1750000000001 136.075 528.1750000000001 137.6 Q 528.1750000000001 139.35 527.5500000000001 140.83749999999998 Q 526.9250000000001 142.325 525.7 143.4125 Q 524.4750000000001 144.5 522.7 145.125 Q 520.9250000000001 145.75 518.6000000000001 145.75 Q 515.95 145.75 513.8000000000001 144.8875 Q 511.6500000000001 144.02499999999998 510.1500000000001 142.675 L 511.2000000000001 140.975 Q 511.4000000000001 140.64999999999998 511.67500000000007 140.475 Q 511.9500000000001 140.3 512.4000000000001 140.3 Q 512.8500000000001 140.3 513.3500000000001 140.64999999999998 Q 513.8500000000001 141 514.5625 141.425 Q 515.2750000000001 141.85 516.2875000000001 142.2 Q 517.3000000000001 142.55 518.825 142.55 Q 520.125 142.55 521.1000000000001 142.21249999999998 Q 522.075 141.875 522.7250000000001 141.3 Q 523.375 140.725 523.6875 139.975 Q 524 139.225 524 138.375 Q 524 137.325 523.4375 136.6375 Q 522.875 135.95 521.95 135.46249999999998 Q 521.0250000000001 134.975 519.8375000000001 134.6125 Q 518.6500000000001 134.25 517.4125000000001 133.85 Q 516.1750000000001 133.45 514.9875000000001 132.9375 Q 513.8000000000001 132.425 512.875 131.64999999999998 Q 511.9500000000001 130.875 511.3875000000001 129.7375 Q 510.8250000000001 128.6 510.8250000000001 126.975 Q 510.8250000000001 125.52499999999999 511.42500000000007 124.1875 Q 512.0250000000001 122.85 513.1750000000001 121.83749999999999 Q 514.325 120.82499999999999 516 120.225 Q 517.6750000000001 119.625 519.825 119.625 Q 522.325 119.625 524.3125 120.4125 Q 526.3000000000001 121.19999999999999 527.75 122.57499999999999 L 526.75 124.19999999999999 Z " fill-rule="evenodd" fill="rgb(255,255,255)" stroke-width="1" stroke="rgba(0,0,0,0)" stroke-linejoin="miter" stroke-linecap="square"/></svg>