<?xml version="1.0" standalone="no"?><!-- Generator: Gravit.io --><svg xmlns="http://www.w3.org/2000/svg" xmlns:xlink="http://www.w3.org/1999/xlink" style="isolation:isolate" width="225.80453107957618" height="76.66224097974009"><path d=" M 4.509679166730564 59.89880153877385 C 3.2058432167332285 57.46139228942121 2.0895090582724265 54.72117667495303 1.198101022573269 51.662284041954706 C -4.267229327156372 32.9048538053259 9.77781427194003 19.611128839544335 26.847272222245863 13.974737554809167 C 11.146843444945148 24.05628978644222 -1.6953851896599303 43.521940804149665 4.509679166730564 59.89880153877385 Z  M 39.09254571060802 76.66224097974003 C 36.329436441004816 76.57226292792717 33.39824079598816 76.16926237182469 30.30351089710615 75.41173802792326 C 11.326257855610095 70.76642628368364 6.835841788018001 51.95591964027693 10.489541802186352 34.35496586152357 C 11.370439093767914 52.99252039625452 21.807579492351067 73.84713868928048 39.09254571060802 76.66224097974003 Z  M 70.90126005118901 55.09427958097041 C 69.44172063679554 57.441995880068646 67.6271252450274 59.779201435049174 65.42353728705677 62.0803036293583 C 51.911880690078135 76.19242212174737 33.37641152000441 70.67591604229523 19.96092918203999 58.711619643065035 C 36.54171355796137 67.26762194616282 59.82081649636177 68.65631362330834 70.90126005118901 55.09427958097041 Z  M 68.12710784789277 16.763429937580838 C 69.43094379789017 19.20084869031882 70.54728745973625 21.941054801401947 71.43868599205001 24.9999474344001 C 76.90401634177971 43.75738717441408 62.85897274268331 57.051112140195585 45.789514792377474 62.68750342493098 C 61.489943569678246 52.605951193297926 74.33217220428327 33.14029067220514 68.12710784789277 16.763429937580838 Z  M 33.54424130401537 0 C 36.30735057361852 0.08997805181286367 39.23855572202052 0.4929786079153473 42.33327611751719 1.2504934484314845 C 61.31052915901324 5.895814696056334 65.80094522660534 24.70632133946316 62.147245212436985 42.30727511821641 C 61.266347920855424 23.669711080100228 50.82920752227227 2.8151022904595493 33.54424130401537 0 Z  M 1.7355269634342676 21.567951895384226 C 3.1950663778278567 19.220245099671388 5.009661769595937 16.883039544690803 7.213249727566563 14.581937350381793 C 20.72490632454526 0.4698093546073778 39.260375494618984 5.986324937444806 52.67585783258335 17.95062133667517 C 36.095073456661964 9.394609530191929 12.815970518261565 8.00591785304647 1.7355269634342676 21.567951895384226 Z " fill-rule="evenodd" fill="rgb(255,255,255)" stroke-width="1" stroke="rgb(0,128,0)" stroke-linejoin="miter" stroke-linecap="square"/><path d=" M 94.88070295457618 21.06624171447538 Q 92.52718732957618 21.06624171447538 91.16488264207618 22.63362452697538 Q 89.80257795457618 24.20100733947538 89.80257795457618 26.92561671447538 Q 89.80257795457618 29.72835108947538 91.11605451707618 31.25667140197538 Q 92.42953107957618 32.78499171447538 94.86117170457618 32.78499171447538 Q 96.35531232957618 32.78499171447538 98.26937482957618 32.24788233947538 L 98.26937482957618 33.70296046447538 Q 96.78499982957618 34.25960108947538 94.60726545457618 34.25960108947538 Q 91.45296857957618 34.25960108947538 89.73910139207618 32.34553858947538 Q 88.02523420457618 30.43147608947538 88.02523420457618 26.90608546447538 Q 88.02523420457618 24.69905421447538 88.85042951707618 23.03889796447538 Q 89.67562482957618 21.37874171447538 91.23324201707618 20.48030421447538 Q 92.79085920457618 19.58186671447538 94.90023420457618 19.58186671447538 Q 97.14632795457618 19.58186671447538 98.82601545457618 20.40217921447538 L 98.12289045457618 21.82796046447538 Q 96.50179670457618 21.06624171447538 94.88070295457618 21.06624171447538 Z  M 110.37874982957618 28.70296046447538 Q 110.37874982957618 31.32014796447538 109.06039045457618 32.78987452697538 Q 107.74203107957618 34.25960108947538 105.41781232957618 34.25960108947538 Q 103.98226545457618 34.25960108947538 102.86898420457618 33.58577296447538 Q 101.75570295457618 32.91194483947538 101.15023420457618 31.65217921447538 Q 100.54476545457618 30.39241358947538 100.54476545457618 28.70296046447538 Q 100.54476545457618 26.08577296447538 101.85335920457618 24.62581202697538 Q 103.16195295457618 23.16585108947538 105.48617170457618 23.16585108947538 Q 107.73226545457618 23.16585108947538 109.05550764207618 24.65999171447538 Q 110.37874982957618 26.15413233947538 110.37874982957618 28.70296046447538 Z  M 102.22445295457618 28.70296046447538 Q 102.22445295457618 30.75374171447538 103.04476545457618 31.82796046447538 Q 103.86507795457618 32.90217921447538 105.45687482957618 32.90217921447538 Q 107.04867170457618 32.90217921447538 107.87386701707618 31.83284327697538 Q 108.69906232957618 30.76350733947538 108.69906232957618 28.70296046447538 Q 108.69906232957618 26.66194483947538 107.87386701707618 25.60237452697538 Q 107.04867170457618 24.54280421447538 105.43734357957618 24.54280421447538 Q 103.84554670457618 24.54280421447538 103.03499982957618 25.58772608947538 Q 102.22445295457618 26.63264796447538 102.22445295457618 28.70296046447538 Z  M 120.54476545457618 34.06428858947538 L 120.54476545457618 27.14046046447538 Q 120.54476545457618 25.83186671447538 119.94906232957618 25.18733546447538 Q 119.35335920457618 24.54280421447538 118.08382795457618 24.54280421447538 Q 116.40414045457618 24.54280421447538 115.62289045457618 25.45100733947538 Q 114.84164045457618 26.35921046447538 114.84164045457618 28.44905421447538 L 114.84164045457618 34.06428858947538 L 113.22054670457618 34.06428858947538 L 113.22054670457618 23.36116358947538 L 114.53890607957618 23.36116358947538 L 114.80257795457618 24.82600733947538 L 114.88070295457618 24.82600733947538 Q 115.37874982957618 24.03499171447538 116.27718732957618 23.60042140197538 Q 117.17562482957618 23.16585108947538 118.27914045457618 23.16585108947538 Q 120.21273420457618 23.16585108947538 121.18929670457618 24.09846827697538 Q 122.16585920457618 25.03108546447538 122.16585920457618 27.08186671447538 L 122.16585920457618 34.06428858947538 L 120.54476545457618 34.06428858947538 Z  M 132.82015607957618 34.06428858947538 L 132.82015607957618 27.14046046447538 Q 132.82015607957618 25.83186671447538 132.22445295457618 25.18733546447538 Q 131.62874982957618 24.54280421447538 130.35921857957618 24.54280421447538 Q 128.67953107957618 24.54280421447538 127.89828107957618 25.45100733947538 Q 127.11703107957618 26.35921046447538 127.11703107957618 28.44905421447538 L 127.11703107957618 34.06428858947538 L 125.49593732957618 34.06428858947538 L 125.49593732957618 23.36116358947538 L 126.81429670457618 23.36116358947538 L 127.07796857957618 24.82600733947538 L 127.15609357957618 24.82600733947538 Q 127.65414045457618 24.03499171447538 128.55257795457618 23.60042140197538 Q 129.45101545457618 23.16585108947538 130.55453107957618 23.16585108947538 Q 132.48812482957618 23.16585108947538 133.46468732957618 24.09846827697538 Q 134.44124982957618 25.03108546447538 134.44124982957618 27.08186671447538 L 134.44124982957618 34.06428858947538 L 132.82015607957618 34.06428858947538 Z  M 142.29281232957618 34.25960108947538 Q 139.91976545457618 34.25960108947538 138.54769514207618 32.81428858947538 Q 137.17562482957618 31.36897608947538 137.17562482957618 28.80061671447538 Q 137.17562482957618 26.21272608947538 138.45003889207618 24.68928858947538 Q 139.72445295457618 23.16585108947538 141.87289045457618 23.16585108947538 Q 143.88460920457618 23.16585108947538 145.05648420457618 24.48909327697538 Q 146.22835920457618 25.81233546447538 146.22835920457618 27.98030421447538 L 146.22835920457618 29.00569483947538 L 138.85531232957618 29.00569483947538 Q 138.90414045457618 30.89046046447538 139.80746076707618 31.86702296447538 Q 140.71078107957618 32.84358546447538 142.35140607957618 32.84358546447538 Q 144.07992170457618 32.84358546447538 145.76937482957618 32.12092921447538 L 145.76937482957618 33.56624171447538 Q 144.90999982957618 33.93733546447538 144.14339826707618 34.09846827697538 Q 143.37679670457618 34.25960108947538 142.29281232957618 34.25960108947538 Z  M 141.85335920457618 24.52327296447538 Q 140.56429670457618 24.52327296447538 139.79769514207618 25.36311671447538 Q 139.03109357957618 26.20296046447538 138.89437482957618 27.68733546447538 L 144.49007795457618 27.68733546447538 Q 144.49007795457618 26.15413233947538 143.80648420457618 25.33870265197538 Q 143.12289045457618 24.52327296447538 141.85335920457618 24.52327296447538 Z  M 153.26937482957618 34.25960108947538 Q 150.94515607957618 34.25960108947538 149.67074201707618 32.82893702697538 Q 148.39632795457618 31.39827296447538 148.39632795457618 28.78108546447538 Q 148.39632795457618 26.09553858947538 149.69027326707618 24.63069483947538 Q 150.98421857957618 23.16585108947538 153.37679670457618 23.16585108947538 Q 154.14828107957618 23.16585108947538 154.91976545457618 23.33186671447538 Q 155.69124982957618 23.49788233947538 156.13070295457618 23.72249171447538 L 155.63265607957618 25.09944483947538 Q 155.09554670457618 24.88460108947538 154.46078107957618 24.74299952697538 Q 153.82601545457618 24.60139796447538 153.33773420457618 24.60139796447538 Q 150.07601545457618 24.60139796447538 150.07601545457618 28.76155421447538 Q 150.07601545457618 30.73421046447538 150.87191389207618 31.78889796447538 Q 151.66781232957618 32.84358546447538 153.23031232957618 32.84358546447538 Q 154.56820295457618 32.84358546447538 155.97445295457618 32.26741358947538 L 155.97445295457618 33.70296046447538 Q 154.90023420457618 34.25960108947538 153.26937482957618 34.25960108947538 Z  M 161.97054670457618 32.92171046447538 Q 162.40023420457618 32.92171046447538 162.80062482957618 32.85823390197538 Q 163.20101545457618 32.79475733947538 163.43539045457618 32.72639796447538 L 163.43539045457618 33.96663233947538 Q 163.17171857957618 34.09358546447538 162.65902326707618 34.17659327697538 Q 162.14632795457618 34.25960108947538 161.73617170457618 34.25960108947538 Q 158.63070295457618 34.25960108947538 158.63070295457618 30.98811671447538 L 158.63070295457618 24.62092921447538 L 157.09749982957618 24.62092921447538 L 157.09749982957618 23.83967921447538 L 158.63070295457618 23.16585108947538 L 159.31429670457618 20.88069483947538 L 160.25179670457618 20.88069483947538 L 160.25179670457618 23.36116358947538 L 163.35726545457618 23.36116358947538 L 163.35726545457618 24.62092921447538 L 160.25179670457618 24.62092921447538 L 160.25179670457618 30.91975733947538 Q 160.25179670457618 31.88655421447538 160.71078107957618 32.40413233947538 Q 161.16976545457618 32.92171046447538 161.97054670457618 32.92171046447538 Z  M 170.09554670457618 34.25960108947538 Q 167.72249982957618 34.25960108947538 166.35042951707618 32.81428858947538 Q 164.97835920457618 31.36897608947538 164.97835920457618 28.80061671447538 Q 164.97835920457618 26.21272608947538 166.25277326707618 24.68928858947538 Q 167.52718732957618 23.16585108947538 169.67562482957618 23.16585108947538 Q 171.68734357957618 23.16585108947538 172.85921857957618 24.48909327697538 Q 174.03109357957618 25.81233546447538 174.03109357957618 27.98030421447538 L 174.03109357957618 29.00569483947538 L 166.65804670457618 29.00569483947538 Q 166.70687482957618 30.89046046447538 167.61019514207618 31.86702296447538 Q 168.51351545457618 32.84358546447538 170.15414045457618 32.84358546447538 Q 171.88265607957618 32.84358546447538 173.57210920457618 32.12092921447538 L 173.57210920457618 33.56624171447538 Q 172.71273420457618 33.93733546447538 171.94613264207618 34.09846827697538 Q 171.17953107957618 34.25960108947538 170.09554670457618 34.25960108947538 Z  M 169.65609357957618 24.52327296447538 Q 168.36703107957618 24.52327296447538 167.60042951707618 25.36311671447538 Q 166.83382795457618 26.20296046447538 166.69710920457618 27.68733546447538 L 172.29281232957618 27.68733546447538 Q 172.29281232957618 26.15413233947538 171.60921857957618 25.33870265197538 Q 170.92562482957618 24.52327296447538 169.65609357957618 24.52327296447538 Z  M 184.07992170457618 32.62874171447538 L 183.99203107957618 32.62874171447538 Q 182.86898420457618 34.25960108947538 180.63265607957618 34.25960108947538 Q 178.53304670457618 34.25960108947538 177.36605451707618 32.82405421447538 Q 176.19906232957618 31.38850733947538 176.19906232957618 28.74202296447538 Q 176.19906232957618 26.09553858947538 177.37093732957618 24.63069483947538 Q 178.54281232957618 23.16585108947538 180.63265607957618 23.16585108947538 Q 182.81039045457618 23.16585108947538 183.97249982957618 24.74788233947538 L 184.09945295457618 24.74788233947538 L 184.03109357957618 23.97639796447538 L 183.99203107957618 23.22444483947538 L 183.99203107957618 18.86897608947538 L 185.61312482957618 18.86897608947538 L 185.61312482957618 34.06428858947538 L 184.29476545457618 34.06428858947538 L 184.07992170457618 32.62874171447538 Z  M 180.83773420457618 32.90217921447538 Q 182.49789045457618 32.90217921447538 183.24496076707618 31.99885890197538 Q 183.99203107957618 31.09553858947538 183.99203107957618 29.08381983947538 L 183.99203107957618 28.74202296447538 Q 183.99203107957618 26.46663233947538 183.23519514207618 25.49495265197538 Q 182.47835920457618 24.52327296447538 180.81820295457618 24.52327296447538 Q 179.39242170457618 24.52327296447538 178.63558576707618 25.63167140197538 Q 177.87874982957618 26.74006983947538 177.87874982957618 28.76155421447538 Q 177.87874982957618 30.81233546447538 178.63070295457618 31.85725733947538 Q 179.38265607957618 32.90217921447538 180.83773420457618 32.90217921447538 Z  M 99.54867170457618 47.02327296447538 L 99.54867170457618 56.26155421447538 Q 99.54867170457618 58.70296046447538 98.07406232957618 60.09944483947538 Q 96.59945295457618 61.49592921447538 94.02132795457618 61.49592921447538 Q 91.44320295457618 61.49592921447538 90.03207014207618 60.08967921447538 Q 88.62093732957618 58.68342921447538 88.62093732957618 56.22249171447538 L 88.62093732957618 47.02327296447538 L 90.28109357957618 47.02327296447538 L 90.28109357957618 56.33967921447538 Q 90.28109357957618 58.12678858947538 91.25765607957618 59.08381983947538 Q 92.23421857957618 60.04085108947538 94.12874982957618 60.04085108947538 Q 95.93539045457618 60.04085108947538 96.91195295457618 59.07893702697538 Q 97.88851545457618 58.11702296447538 97.88851545457618 56.32014796447538 L 97.88851545457618 47.02327296447538 L 99.54867170457618 47.02327296447538 Z  M 107.96664045457618 50.40217921447538 Q 108.67953107957618 50.40217921447538 109.24593732957618 50.51936671447538 L 109.02132795457618 52.02327296447538 Q 108.35726545457618 51.87678858947538 107.84945295457618 51.87678858947538 Q 106.55062482957618 51.87678858947538 105.62777326707618 52.93147608947538 Q 104.70492170457618 53.98616358947538 104.70492170457618 55.55842921447538 L 104.70492170457618 61.30061671447538 L 103.08382795457618 61.30061671447538 L 103.08382795457618 50.59749171447538 L 104.42171857957618 50.59749171447538 L 104.60726545457618 52.57991358947538 L 104.68539045457618 52.57991358947538 Q 105.28109357957618 51.53499171447538 106.12093732957618 50.96858546447538 Q 106.96078107957618 50.40217921447538 107.96664045457618 50.40217921447538 Z  M 116.22835920457618 50.42171046447538 Q 118.33773420457618 50.42171046447538 119.50472639207618 51.86214015197538 Q 120.67171857957618 53.30256983947538 120.67171857957618 55.93928858947538 Q 120.67171857957618 58.57600733947538 119.49496076707618 60.03596827697538 Q 118.31820295457618 61.49592921447538 116.22835920457618 61.49592921447538 Q 115.18343732957618 61.49592921447538 114.31917951707618 61.11018702697538 Q 113.45492170457618 60.72444483947538 112.86898420457618 59.92366358947538 L 112.75179670457618 59.92366358947538 L 112.40999982957618 61.30061671447538 L 111.24789045457618 61.30061671447538 L 111.24789045457618 46.10530421447538 L 112.86898420457618 46.10530421447538 L 112.86898420457618 49.79671046447538 Q 112.86898420457618 51.03694483947538 112.79085920457618 52.02327296447538 L 112.86898420457618 52.02327296447538 Q 114.00179670457618 50.42171046447538 116.22835920457618 50.42171046447538 Z  M 115.99398420457618 51.77913233947538 Q 114.33382795457618 51.77913233947538 113.60140607957618 52.73128077697538 Q 112.86898420457618 53.68342921447538 112.86898420457618 55.93928858947538 Q 112.86898420457618 58.19514796447538 113.62093732957618 59.16682765197538 Q 114.37289045457618 60.13850733947538 116.03304670457618 60.13850733947538 Q 117.52718732957618 60.13850733947538 118.25960920457618 59.04964015197538 Q 118.99203107957618 57.96077296447538 118.99203107957618 55.91975733947538 Q 118.99203107957618 53.82991358947538 118.25960920457618 52.80452296447538 Q 117.52718732957618 51.77913233947538 115.99398420457618 51.77913233947538 Z  M 130.08578107957618 61.30061671447538 L 129.76351545457618 59.77717921447538 L 129.68539045457618 59.77717921447538 Q 128.88460920457618 60.78303858947538 128.08871076707618 61.13948390197538 Q 127.29281232957618 61.49592921447538 126.10140607957618 61.49592921447538 Q 124.50960920457618 61.49592921447538 123.60628889207618 60.67561671447538 Q 122.70296857957618 59.85530421447538 122.70296857957618 58.34163233947538 Q 122.70296857957618 55.09944483947538 127.88851545457618 54.94319483947538 L 129.70492170457618 54.88460108947538 L 129.70492170457618 54.22053858947538 Q 129.70492170457618 52.96077296447538 129.16292951707618 52.36018702697538 Q 128.62093732957618 51.75960108947538 127.42953107957618 51.75960108947538 Q 126.09164045457618 51.75960108947538 124.40218732957618 52.57991358947538 L 123.90414045457618 51.33967921447538 Q 124.69515607957618 50.90999171447538 125.63753889207618 50.66585108947538 Q 126.57992170457618 50.42171046447538 127.52718732957618 50.42171046447538 Q 129.44124982957618 50.42171046447538 130.36410139207618 51.27131983947538 Q 131.28695295457618 52.12092921447538 131.28695295457618 53.99592921447538 L 131.28695295457618 61.30061671447538 L 130.08578107957618 61.30061671447538 Z  M 126.42367170457618 60.15803858947538 Q 127.93734357957618 60.15803858947538 128.80160139207618 59.32796046447538 Q 129.66585920457618 58.49788233947538 129.66585920457618 57.00374171447538 L 129.66585920457618 56.03694483947538 L 128.04476545457618 56.10530421447538 Q 126.11117170457618 56.17366358947538 125.25667951707618 56.70589015197538 Q 124.40218732957618 57.23811671447538 124.40218732957618 58.36116358947538 Q 124.40218732957618 59.24006983947538 124.93441389207618 59.69905421447538 Q 125.46664045457618 60.15803858947538 126.42367170457618 60.15803858947538 Z  M 141.95101545457618 61.30061671447538 L 141.95101545457618 54.37678858947538 Q 141.95101545457618 53.06819483947538 141.35531232957618 52.42366358947538 Q 140.75960920457618 51.77913233947538 139.49007795457618 51.77913233947538 Q 137.81039045457618 51.77913233947538 137.02914045457618 52.68733546447538 Q 136.24789045457618 53.59553858947538 136.24789045457618 55.68538233947538 L 136.24789045457618 61.30061671447538 L 134.62679670457618 61.30061671447538 L 134.62679670457618 50.59749171447538 L 135.94515607957618 50.59749171447538 L 136.20882795457618 52.06233546447538 L 136.28695295457618 52.06233546447538 Q 136.78499982957618 51.27131983947538 137.68343732957618 50.83674952697538 Q 138.58187482957618 50.40217921447538 139.68539045457618 50.40217921447538 Q 141.61898420457618 50.40217921447538 142.59554670457618 51.33479640197538 Q 143.57210920457618 52.26741358947538 143.57210920457618 54.31819483947538 L 143.57210920457618 61.30061671447538 L 141.95101545457618 61.30061671447538 Z  M 156.73617170457618 61.30061671447538 L 155.07601545457618 61.30061671447538 L 155.07601545457618 48.49788233947538 L 150.55453107957618 48.49788233947538 L 150.55453107957618 47.02327296447538 L 161.25765607957618 47.02327296447538 L 161.25765607957618 48.49788233947538 L 156.73617170457618 48.49788233947538 L 156.73617170457618 61.30061671447538 Z  M 168.04476545457618 50.40217921447538 Q 168.75765607957618 50.40217921447538 169.32406232957618 50.51936671447538 L 169.09945295457618 52.02327296447538 Q 168.43539045457618 51.87678858947538 167.92757795457618 51.87678858947538 Q 166.62874982957618 51.87678858947538 165.70589826707618 52.93147608947538 Q 164.78304670457618 53.98616358947538 164.78304670457618 55.55842921447538 L 164.78304670457618 61.30061671447538 L 163.16195295457618 61.30061671447538 L 163.16195295457618 50.59749171447538 L 164.49984357957618 50.59749171447538 L 164.68539045457618 52.57991358947538 L 164.76351545457618 52.57991358947538 Q 165.35921857957618 51.53499171447538 166.19906232957618 50.96858546447538 Q 167.03890607957618 50.40217921447538 168.04476545457618 50.40217921447538 Z  M 180.56429670457618 55.93928858947538 Q 180.56429670457618 58.55647608947538 179.24593732957618 60.02620265197538 Q 177.92757795457618 61.49592921447538 175.60335920457618 61.49592921447538 Q 174.16781232957618 61.49592921447538 173.05453107957618 60.82210108947538 Q 171.94124982957618 60.14827296447538 171.33578107957618 58.88850733947538 Q 170.73031232957618 57.62874171447538 170.73031232957618 55.93928858947538 Q 170.73031232957618 53.32210108947538 172.03890607957618 51.86214015197538 Q 173.34749982957618 50.40217921447538 175.67171857957618 50.40217921447538 Q 177.91781232957618 50.40217921447538 179.24105451707618 51.89631983947538 Q 180.56429670457618 53.39046046447538 180.56429670457618 55.93928858947538 Z  M 172.40999982957618 55.93928858947538 Q 172.40999982957618 57.99006983947538 173.23031232957618 59.06428858947538 Q 174.05062482957618 60.13850733947538 175.64242170457618 60.13850733947538 Q 177.23421857957618 60.13850733947538 178.05941389207618 59.06917140197538 Q 178.88460920457618 57.99983546447538 178.88460920457618 55.93928858947538 Q 178.88460920457618 53.89827296447538 178.05941389207618 52.83870265197538 Q 177.23421857957618 51.77913233947538 175.62289045457618 51.77913233947538 Q 174.03109357957618 51.77913233947538 173.22054670457618 52.82405421447538 Q 172.40999982957618 53.86897608947538 172.40999982957618 55.93928858947538 Z  M 188.38656232957618 61.49592921447538 Q 187.34164045457618 61.49592921447538 186.47738264207618 61.11018702697538 Q 185.61312482957618 60.72444483947538 185.02718732957618 59.92366358947538 L 184.90999982957618 59.92366358947538 Q 185.02718732957618 60.86116358947538 185.02718732957618 61.70100733947538 L 185.02718732957618 66.10530421447538 L 183.40609357957618 66.10530421447538 L 183.40609357957618 50.59749171447538 L 184.72445295457618 50.59749171447538 L 184.94906232957618 52.06233546447538 L 185.02718732957618 52.06233546447538 Q 185.65218732957618 51.18342921447538 186.48226545457618 50.79280421447538 Q 187.31234357957618 50.40217921447538 188.38656232957618 50.40217921447538 Q 190.51546857957618 50.40217921447538 191.67269514207618 51.85725733947538 Q 192.82992170457618 53.31233546447538 192.82992170457618 55.93928858947538 Q 192.82992170457618 58.57600733947538 191.65316389207618 60.03596827697538 Q 190.47640607957618 61.49592921447538 188.38656232957618 61.49592921447538 Z  M 188.15218732957618 51.77913233947538 Q 186.51156232957618 51.77913233947538 185.77914045457618 52.68733546447538 Q 185.04671857957618 53.59553858947538 185.02718732957618 55.57796046447538 L 185.02718732957618 55.93928858947538 Q 185.02718732957618 58.19514796447538 185.77914045457618 59.16682765197538 Q 186.53109357957618 60.13850733947538 188.19124982957618 60.13850733947538 Q 189.57796857957618 60.13850733947538 190.36410139207618 59.01546046447538 Q 191.15023420457618 57.89241358947538 191.15023420457618 55.91975733947538 Q 191.15023420457618 53.91780421447538 190.36410139207618 52.84846827697538 Q 189.57796857957618 51.77913233947538 188.15218732957618 51.77913233947538 Z  M 197.28304670457618 61.30061671447538 L 195.66195295457618 61.30061671447538 L 195.66195295457618 50.59749171447538 L 197.28304670457618 50.59749171447538 L 197.28304670457618 61.30061671447538 Z  M 195.52523420457618 47.69710108947538 Q 195.52523420457618 47.14046046447538 195.79867170457618 46.88167140197538 Q 196.07210920457618 46.62288233947538 196.48226545457618 46.62288233947538 Q 196.87289045457618 46.62288233947538 197.15609357957618 46.88655421447538 Q 197.43929670457618 47.15022608947538 197.43929670457618 47.69710108947538 Q 197.43929670457618 48.24397608947538 197.15609357957618 48.51253077697538 Q 196.87289045457618 48.78108546447538 196.48226545457618 48.78108546447538 Q 196.07210920457618 48.78108546447538 195.79867170457618 48.51253077697538 Q 195.52523420457618 48.24397608947538 195.52523420457618 47.69710108947538 Z  M 204.99789045457618 61.49592921447538 Q 202.67367170457618 61.49592921447538 201.39925764207618 60.06526515197538 Q 200.12484357957618 58.63460108947538 200.12484357957618 56.01741358947538 Q 200.12484357957618 53.33186671447538 201.41878889207618 51.86702296447538 Q 202.71273420457618 50.40217921447538 205.10531232957618 50.40217921447538 Q 205.87679670457618 50.40217921447538 206.64828107957618 50.56819483947538 Q 207.41976545457618 50.73421046447538 207.85921857957618 50.95881983947538 L 207.36117170457618 52.33577296447538 Q 206.82406232957618 52.12092921447538 206.18929670457618 51.97932765197538 Q 205.55453107957618 51.83772608947538 205.06624982957618 51.83772608947538 Q 201.80453107957618 51.83772608947538 201.80453107957618 55.99788233947538 Q 201.80453107957618 57.97053858947538 202.60042951707618 59.02522608947538 Q 203.39632795457618 60.07991358947538 204.95882795457618 60.07991358947538 Q 206.29671857957618 60.07991358947538 207.70296857957618 59.50374171447538 L 207.70296857957618 60.93928858947538 Q 206.62874982957618 61.49592921447538 204.99789045457618 61.49592921447538 Z  M 217.14632795457618 58.38069483947538 Q 217.14632795457618 59.87483546447538 216.03304670457618 60.68538233947538 Q 214.91976545457618 61.49592921447538 212.90804670457618 61.49592921447538 Q 210.77914045457618 61.49592921447538 209.58773420457618 60.82210108947538 L 209.58773420457618 59.31819483947538 Q 210.35921857957618 59.70881983947538 211.24300764207618 59.93342921447538 Q 212.12679670457618 60.15803858947538 212.94710920457618 60.15803858947538 Q 214.21664045457618 60.15803858947538 214.90023420457618 59.75276515197538 Q 215.58382795457618 59.34749171447538 215.58382795457618 58.51741358947538 Q 215.58382795457618 57.89241358947538 215.04183576707618 57.44807765197538 Q 214.49984357957618 57.00374171447538 212.92757795457618 56.39827296447538 Q 211.43343732957618 55.84163233947538 210.80355451707618 55.42659327697538 Q 210.17367170457618 55.01155421447538 209.86605451707618 54.48421046447538 Q 209.55843732957618 53.95686671447538 209.55843732957618 53.22444483947538 Q 209.55843732957618 51.91585108947538 210.62289045457618 51.15901515197538 Q 211.68734357957618 50.40217921447538 213.54281232957618 50.40217921447538 Q 215.27132795457618 50.40217921447538 216.92171857957618 51.10530421447538 L 216.34554670457618 52.42366358947538 Q 214.73421857957618 51.75960108947538 213.42562482957618 51.75960108947538 Q 212.27328107957618 51.75960108947538 211.68734357957618 52.12092921447538 Q 211.10140607957618 52.48225733947538 211.10140607957618 53.11702296447538 Q 211.10140607957618 53.54671046447538 211.32113264207618 53.84944483947538 Q 211.54085920457618 54.15217921447538 212.02914045457618 54.42561671447538 Q 212.51742170457618 54.69905421447538 213.90414045457618 55.21663233947538 Q 215.80843732957618 55.90999171447538 216.47738264207618 56.61311671447538 Q 217.14632795457618 57.31624171447538 217.14632795457618 58.38069483947538 Z " fill-rule="evenodd" fill="rgb(255,255,255)" stroke-width="1" stroke="rgba(0,0,0,0)" stroke-linejoin="miter" stroke-linecap="square"/></svg>