<?xml version="1.0" standalone="no"?>
<!DOCTYPE svg PUBLIC "-//W3C//DTD SVG 20010904//EN"
 "http://www.w3.org/TR/2001/REC-SVG-20010904/DTD/svg10.dtd">
<svg version="1.0" xmlns="http://www.w3.org/2000/svg"
 width="16.000000pt" height="16.000000pt" viewBox="0 0 16.000000 16.000000"
 preserveAspectRatio="xMidYMid meet">
<metadata>
Created by potrace 1.11, written by Peter Selinger 2001-2013
</metadata>
<g transform="translate(0.000000,16.000000) scale(0.002286,-0.002286)"
fill="#000000" stroke="none">
<path d="M2940 6986 c-413 -64 -837 -221 -1215 -451 -456 -277 -892 -700
-1193 -1157 -289 -438 -443 -866 -514 -1428 -18 -144 -18 -746 0 -895 79 -641
297 -1169 688 -1663 364 -459 808 -830 1272 -1061 283 -142 646 -258 962 -308
167 -26 859 -26 1065 0 290 38 440 71 637 141 1071 382 1916 1262 2248 2339
86 280 105 453 105 997 0 551 -18 722 -103 1000 -285 924 -979 1738 -1859
2179 -341 170 -614 246 -1073 297 -197 22 -897 29 -1020 10z m514 -163 c53
-175 341 -1221 387 -1407 l32 -129 -29 -24 c-109 -88 -612 -295 -753 -310
-103 -10 -202 35 -365 167 l-68 55 6 485 c6 499 16 722 41 917 18 139 34 179
77 197 72 30 347 62 560 65 94 1 107 -1 112 -16z m476 2 c146 -16 315 -47 418
-75 232 -64 631 -234 897 -383 193 -108 365 -239 365 -277 0 -18 -100 -75
-275 -157 -572 -270 -1223 -548 -1269 -541 -23 4 -31 24 -137 383 -123 413
-269 955 -272 1004 -2 40 1 45 23 52 40 11 117 10 250 -6z m-1477 -157 c35
-142 -5 -1062 -63 -1438 -46 -304 -147 -510 -382 -785 -178 -207 -319 -301
-380 -252 -23 18 -486 1321 -531 1494 -27 102 -26 104 108 239 196 197 580
474 815 588 136 65 391 173 416 175 7 1 14 -9 17 -21z m3420 -808 c155 -145
388 -437 504 -632 128 -216 276 -537 304 -662 11 -49 10 -59 -3 -72 -42 -42
-511 -179 -783 -228 -345 -62 -630 -52 -874 30 -184 63 -391 184 -528 309
-181 165 -391 457 -381 528 2 18 69 55 367 204 427 213 1110 531 1261 586 40
14 61 4 133 -63z m-4756 -608 c167 -448 255 -704 308 -898 42 -153 43 -171 11
-184 -58 -22 -324 -32 -726 -28 -434 5 -473 9 -485 49 -21 64 138 526 272 794
106 213 306 515 422 638 19 20 38 37 41 37 3 0 73 -184 157 -408z m2787 -188
c12 -32 5 -132 -14 -202 -42 -150 -130 -294 -260 -423 -66 -66 -104 -95 -161
-122 -133 -64 -330 -105 -622 -129 -133 -11 -149 -10 -164 4 -15 16 -14 21 18
73 137 227 465 480 886 682 185 88 283 132 299 133 7 0 15 -7 18 -16z m1429
-1053 c162 -42 286 -135 306 -229 28 -133 -60 -306 -236 -463 -120 -107 -289
-206 -403 -235 -166 -42 -344 27 -399 156 -63 147 -68 541 -8 633 32 50 140
108 256 137 135 35 354 35 484 1z m-1640 -30 c166 -27 307 -101 438 -231 93
-92 141 -172 175 -290 25 -88 25 -318 0 -440 -36 -170 -140 -404 -257 -580
-119 -178 -213 -260 -639 -561 -402 -285 -710 -489 -737 -489 -8 0 -28 30 -44
68 -91 201 -360 929 -403 1092 -18 66 -20 94 -13 125 62 272 185 755 279 1094
51 182 51 183 85 198 19 8 85 18 146 23 149 11 884 4 970 -9z m-1672 -7 c30
-9 70 -25 89 -37 187 -110 199 -277 54 -774 -51 -175 -72 -229 -84 -217 -20
22 -261 694 -306 854 -38 136 -34 154 42 175 67 18 140 18 205 -1z m-1037 -27
l98 -2 -378 -113 c-400 -118 -454 -132 -494 -122 -25 6 -25 7 -28 125 l-3 120
353 -3 c194 -1 397 -3 452 -5z m5847 -103 c27 -120 19 -568 -17 -857 -47 -379
-153 -685 -374 -1077 -250 -442 -539 -792 -865 -1046 -168 -131 -474 -330
-567 -368 -28 -12 -38 -13 -46 -3 -42 51 -106 471 -133 877 -32 479 30 828
211 1195 208 422 469 669 1085 1030 259 152 499 268 617 299 63 17 75 10 89
-50z m-5215 -36 c65 -130 105 -223 189 -448 141 -379 229 -625 228 -641 -2
-19 -322 -1151 -389 -1374 -57 -190 -143 -455 -155 -477 -6 -10 -16 -18 -23
-18 -48 0 -393 335 -561 545 -302 377 -533 834 -646 1278 -59 234 -71 332 -76
603 -5 239 -4 252 13 257 176 53 1044 293 1264 351 105 27 104 28 156 -76z
m575 -1524 c107 -285 359 -978 359 -988 -1 -12 -15 -22 -380 -267 -309 -207
-454 -295 -458 -277 -6 30 369 1477 424 1637 7 21 10 15 55 -105z m1998 -461
c266 -119 387 -242 449 -458 70 -242 140 -743 121 -864 -15 -96 -62 -139 -210
-195 -222 -83 -716 -156 -1058 -156 -142 0 -406 22 -419 35 -8 8 -163 442
-218 610 -30 94 -65 210 -76 258 l-20 88 23 26 c55 59 328 251 624 438 327
207 465 267 610 262 69 -2 93 -8 174 -44z m-1542 -820 c86 -195 273 -714 273
-760 0 -18 -6 -23 -27 -24 -129 -5 -354 55 -648 173 -255 103 -340 154 -318
192 31 53 635 476 681 476 7 0 25 -26 39 -57z"/>
</g>
</svg>
