<?xml version="1.0" standalone="no"?>
<!DOCTYPE svg PUBLIC "-//W3C//DTD SVG 20010904//EN"
 "http://www.w3.org/TR/2001/REC-SVG-20010904/DTD/svg10.dtd">
<svg version="1.0" xmlns="http://www.w3.org/2000/svg"
 width="16.000000pt" height="16.000000pt" viewBox="0 0 16.000000 16.000000"
 preserveAspectRatio="xMidYMid meet">
<metadata>
Created by potrace 1.11, written by Peter Selinger 2001-2013
</metadata>
<g transform="translate(0.000000,16.000000) scale(0.002286,-0.002286)"
fill="#000000" stroke="none">
<path d="M3010 6997 c-3 -3 -32 -8 -65 -12 -328 -37 -791 -201 -1150 -407
-321 -185 -689 -490 -932 -772 -49 -55 -91 -103 -94 -106 -8 -7 -141 -179
-162 -210 -136 -198 -216 -333 -301 -512 -118 -249 -209 -538 -255 -813 -42
-248 -46 -307 -46 -650 0 -300 5 -401 25 -543 19 -134 28 -180 75 -397 12 -54
82 -263 122 -365 161 -407 428 -803 783 -1160 117 -117 214 -207 279 -260 24
-19 61 -51 83 -70 57 -49 282 -210 352 -251 32 -19 72 -43 90 -53 66 -40 286
-146 386 -186 165 -66 417 -143 575 -176 210 -44 283 -49 675 -49 305 0 480 6
560 19 14 3 63 9 110 15 47 6 96 13 110 16 14 3 41 8 60 11 139 24 380 101
560 179 592 255 1103 660 1491 1180 198 265 348 536 470 848 79 204 135 411
154 572 4 28 8 61 11 75 26 161 27 1010 0 1160 -3 14 -7 50 -11 81 -3 31 -8
67 -11 80 -2 13 -7 40 -10 59 -25 158 -137 466 -260 715 -177 357 -396 664
-683 955 -300 304 -600 524 -957 703 -177 89 -461 197 -599 228 -83 18 -89 19
-125 25 -19 2 -57 9 -85 14 -68 13 -163 25 -285 36 -41 4 -88 9 -105 11 -44 6
-830 15 -835 10z m444 -174 c33 -113 325 -1161 341 -1223 2 -8 20 -78 39 -155
20 -77 36 -146 36 -153 0 -27 -115 -89 -415 -223 -142 -63 -345 -122 -408
-118 -62 5 -160 44 -222 91 -26 19 -161 133 -165 140 -8 11 5 867 15 1028 2
25 6 95 9 155 4 61 9 117 11 125 2 8 7 46 10 85 16 184 41 209 228 231 29 4
55 8 58 10 3 2 52 6 110 10 57 4 105 7 106 8 1 1 56 2 122 4 107 2 120 1 125
-15z m486 2 c14 -2 46 -7 71 -9 122 -13 359 -70 506 -122 407 -144 854 -373
1026 -524 67 -59 74 -75 43 -103 -23 -22 -195 -111 -346 -180 -156 -71 -189
-86 -340 -155 -85 -38 -216 -96 -290 -127 -74 -31 -154 -66 -177 -76 -61 -28
-206 -86 -295 -120 l-78 -28 -15 29 c-8 16 -26 64 -40 107 -57 185 -260 892
-271 946 -2 11 -10 41 -18 66 -29 92 -68 270 -63 285 3 8 16 16 29 19 28 5
222 -1 258 -8z m-1483 -206 c10 -92 9 -421 -1 -594 -4 -71 -9 -166 -11 -210
-4 -79 -13 -207 -20 -275 -2 -19 -6 -69 -10 -110 -3 -41 -10 -102 -15 -135 -5
-33 -12 -80 -15 -105 -17 -121 -77 -303 -132 -400 -29 -51 -102 -168 -120
-190 -196 -253 -377 -421 -452 -419 -59 1 -59 3 -173 320 -285 791 -428 1214
-428 1262 0 49 145 199 341 352 68 53 135 106 149 117 126 100 359 244 490
302 36 16 93 42 128 57 34 16 68 29 75 29 7 0 17 4 23 8 5 5 38 19 74 32 36
13 69 27 74 31 14 13 15 9 23 -72z m3418 -761 c152 -143 391 -442 502 -628
157 -261 331 -670 309 -725 -18 -48 -557 -206 -856 -251 -25 -3 -53 -8 -63
-10 -127 -23 -418 -22 -553 2 -221 40 -452 146 -647 295 -43 34 -175 164 -237
234 -99 112 -220 306 -220 352 0 24 48 53 285 171 623 310 1326 631 1381 632
13 0 52 -29 99 -72z m-4787 -526 c214 -570 301 -829 363 -1072 21 -83 12 -92
-98 -104 -235 -25 -947 -26 -1058 -2 -11 3 -25 5 -32 5 -27 2 -44 33 -39 70
10 66 16 87 57 217 68 213 191 506 276 654 56 98 234 373 253 390 3 3 23 28
44 55 47 59 98 115 105 115 4 0 61 -148 129 -328z m2818 -332 c2 -103 -20
-182 -83 -305 -83 -159 -235 -321 -355 -379 -66 -32 -218 -76 -308 -90 -19 -3
-44 -7 -55 -10 -11 -2 -47 -7 -80 -11 -33 -3 -73 -8 -90 -10 -16 -2 -76 -6
-133 -10 -119 -8 -138 -1 -119 43 76 177 403 458 742 638 100 53 413 200 440
207 36 8 40 1 41 -73z m1394 -980 c92 -17 215 -78 276 -137 41 -39 54 -60 62
-97 27 -126 -39 -275 -185 -419 -129 -127 -302 -237 -436 -278 -85 -26 -195
-21 -267 13 -158 72 -195 169 -195 503 0 203 12 252 75 305 70 59 210 107 360
123 62 7 243 -1 310 -13z m-1648 -34 c36 -3 78 -10 92 -16 14 -5 26 -7 26 -5
0 10 115 -39 184 -77 135 -77 246 -187 303 -303 50 -99 67 -184 67 -325 0
-164 -10 -234 -49 -355 -84 -256 -221 -492 -374 -646 -116 -116 -440 -354
-926 -680 -238 -159 -286 -189 -304 -189 -15 0 -61 103 -166 375 -98 251 -187
497 -256 706 -35 107 -40 132 -35 184 9 110 309 1266 338 1302 8 10 113 28
208 36 63 6 823 0 892 -7z m-1631 -12 c119 -35 207 -115 230 -207 30 -122 9
-267 -87 -602 -46 -161 -68 -221 -79 -217 -12 4 -36 67 -149 377 -87 238 -134
377 -156 455 -7 25 -16 58 -21 74 -11 37 -11 77 0 95 11 17 100 39 162 40 25
1 70 -6 100 -15z m-952 -27 c8 -1 -53 -22 -135 -46 -82 -25 -201 -60 -264 -79
-394 -118 -455 -131 -483 -103 -10 10 -19 200 -10 226 3 8 839 10 892 2z
m5752 -70 c30 -55 32 -560 4 -802 -2 -16 -7 -59 -11 -95 -5 -36 -8 -67 -9 -70
-1 -3 -5 -30 -9 -60 -76 -524 -486 -1274 -957 -1750 -172 -174 -445 -382 -699
-533 -124 -73 -165 -90 -178 -74 -19 23 -59 192 -78 337 -4 30 -8 57 -9 60 -1
3 -5 39 -9 80 -5 41 -10 82 -11 90 -1 8 -6 56 -10 105 -4 50 -9 106 -11 125
-3 19 -6 136 -8 260 -4 207 -1 260 19 405 14 98 71 326 95 380 5 11 19 46 31
78 49 136 204 405 294 512 128 153 231 251 370 352 357 261 907 567 1115 621
42 11 57 6 71 -21z m-5221 -32 c66 -125 168 -377 290 -715 20 -58 61 -170 91
-250 29 -80 52 -153 51 -164 0 -10 -26 -104 -56 -210 -30 -105 -112 -391 -181
-636 -131 -460 -166 -579 -240 -812 -56 -174 -71 -208 -89 -208 -33 0 -206
155 -387 346 -338 358 -610 813 -762 1279 -40 122 -101 370 -112 455 -4 30 -9
63 -11 73 -8 47 -17 209 -18 356 -2 156 -1 164 19 172 22 9 511 148 805 228
102 28 201 56 220 62 108 32 299 77 324 76 24 -2 34 -11 56 -52z m608 -1607
c68 -182 300 -814 328 -895 l19 -53 -25 -17 c-159 -113 -674 -453 -758 -500
-28 -15 -53 -25 -57 -21 -4 4 21 118 55 255 34 136 63 255 65 263 8 36 100
388 135 515 20 77 54 203 75 280 66 248 92 335 98 335 3 0 32 -73 65 -162z
m2047 -448 c218 -107 304 -199 373 -396 21 -61 37 -118 47 -169 31 -163 70
-413 81 -513 25 -245 4 -307 -131 -372 -98 -47 -291 -102 -449 -126 -21 -3
-48 -8 -60 -10 -11 -2 -41 -7 -66 -10 -25 -2 -72 -9 -105 -14 -65 -10 -144
-18 -245 -26 -91 -7 -367 -7 -415 0 -22 3 -56 8 -75 10 -107 14 -136 19 -141
24 -3 4 -27 68 -53 142 -26 74 -65 182 -86 240 -58 163 -116 345 -145 459 -31
124 -32 122 79 208 127 99 536 371 717 478 149 87 310 150 404 157 63 5 140
-19 270 -82z m-1620 -761 c24 -45 140 -343 197 -504 69 -195 97 -294 85 -302
-73 -45 -655 132 -921 281 -96 54 -95 68 9 151 156 124 572 405 601 405 8 0
21 -14 29 -31z"/>
</g>
</svg>
